<svg width="612" height="441" viewBox="0 0 612 441" fill="none" xmlns="http://www.w3.org/2000/svg">
<ellipse cx="307.304" cy="365" rx="284" ry="30" fill="url(#paint0_radial)"/>
<rect x="372.993" y="187.338" width="50" height="145.937" transform="rotate(11.9219 372.993 187.338)" fill="white"/>
<path d="M102.853 363.813C102.053 350.613 101.853 302.313 101.853 279.812C97.3533 280.479 89.5533 291.713 94.3533 331.313C94.1866 339.813 94.1533 357.813 95.3533 361.813C96.5533 365.813 102.52 367.719 105.353 368.172C103.901 367.583 102.998 366.206 102.853 363.813Z" fill="#775543"/>
<path d="M115.345 285.312C117.345 315.712 127.845 330.979 132.845 334.812L139.345 348.812C129.657 357.409 111.903 370.832 105.345 368.172C103.894 367.583 102.99 366.205 102.845 363.812C102.045 350.613 101.845 302.312 101.845 279.812C111.445 278.612 114.845 282.979 115.345 285.312Z" fill="white"/>
<path d="M477.864 369.607L463.845 376.847C470.665 385.789 477.864 403.674 486.199 401.545C506.658 400.267 507.615 405.301 511.583 404.526C520.297 402.822 503.627 398.564 498.702 394.306C505.521 398.138 508.931 398.99 511.583 399.416C514.099 399.82 530.527 401.971 533.179 401.545C535.831 401.119 536.589 398.564 535.073 397.287C533.558 396.009 513.099 391.325 509.31 390.473C505.521 389.622 497.944 388.77 491.882 388.77C487.032 388.77 480.516 375.995 477.864 369.607Z" fill="#FCAECD"/>
<path d="M230.846 232.607C240.046 227.007 241.346 220.607 240.846 218.107L270.345 224.107L276.345 200.607L235.845 201.607C227.345 206.941 210.245 218.007 209.845 219.607C209.445 221.207 206.346 226.941 204.846 229.607C198.846 238.107 210.846 252.107 213.346 253.107C215.846 254.107 216.846 248.607 216.846 247.607C216.846 246.607 211.846 239.607 212.846 233.607C213.646 228.807 222.513 225.274 226.846 224.107C224.68 227.274 220.046 234.007 218.846 235.607C217.646 237.207 218.013 239.607 218.346 240.607C219.013 242.607 220.846 246.107 222.846 244.107C224.846 242.107 229.013 235.607 230.846 232.607Z" fill="#FCAECD"/>
<path d="M378.974 168.607L413.974 169.107V193.107L404.473 198.607V216.607C385.973 246.607 348.573 306.907 346.973 308.107C345.373 309.307 336.307 310.941 331.973 311.607C337.14 303.441 348.173 283.607 350.973 269.607C353.773 255.607 355.807 234.774 356.473 226.107C336.807 227.107 293.273 229.107 276.473 229.107C259.673 229.107 255.807 225.107 255.973 223.107C264.973 219.607 264.973 196.732 253.974 199.107C253.174 197.507 256.307 196.774 257.974 196.607C301.174 197.807 343.974 190.774 359.974 187.107L378.974 168.607Z" fill="#142FA5"/>
<path d="M420.359 361.619C423.959 358.419 426.526 340.952 427.359 332.619C420.026 327.118 398.759 316.218 372.359 316.618C345.959 317.018 297.359 322.452 276.359 325.119C267.959 323.119 255.859 325.952 250.859 327.619C162.059 346.419 143.345 340.107 132.359 331.619C127.159 342.419 128.859 356.119 130.359 361.619C135.859 366.119 415.859 365.619 420.359 361.619Z" fill="black"/>
<path d="M311.345 228.462C344.945 297.662 369.679 323.962 377.845 328.462C355.679 336.962 309.245 351.662 300.845 342.462C292.445 333.262 288.012 298.295 287.845 281.962C269.045 317.562 232.679 337.129 215.845 342.462H198.845C207.679 330.962 227.245 304.262 234.845 289.462C244.345 270.962 248.345 265.462 270.345 235.962C287.945 212.362 305.012 221.129 311.345 228.462Z" fill="black"/>
<path d="M370.624 210.27C378.668 196.696 412.629 162.327 428.605 146.839L438.809 180.38C435.946 185.447 422.843 203.503 393.335 235.196C363.828 266.889 357.132 257.969 357.473 249.548C358.505 242.111 362.579 223.844 370.624 210.27Z" fill="#3263CE"/>
<path d="M456.487 138.767C457.332 135.954 456.487 114.822 455.958 104.607C439.889 104.607 429.528 114.989 426.356 120.18L415.255 121.687V129.222C407.717 139.269 403.978 140.274 400.983 144.795C400.278 146.972 401.934 153.335 414.198 161.373L414.198 176.945L415.255 211.607L445.248 184.983L446.443 164.889V150.321C449.439 147.642 455.641 141.58 456.487 138.767Z" fill="#FCAECD"/>
<path d="M451.346 136.607C452.146 133.807 451.346 112.774 450.846 102.607C459.846 103.274 479.945 111.407 488.345 138.607V179.607L491.345 221.607C493.345 245.441 494.845 293.707 484.845 296.107C474.845 298.507 474.345 298.107 475.345 297.607V261.107C483.179 253.107 495.345 234.307 481.345 223.107C468.845 208.774 443.245 180.107 440.845 180.107L441.846 162.607V148.107C444.679 145.441 450.546 139.407 451.346 136.607Z" fill="#3263CE"/>
<path d="M421.845 194.107L444.088 178.607C458.088 191.007 476.588 212.441 484.088 221.607C498.888 233.607 486.255 251.941 478.088 259.607C473.688 327.607 483.921 370.941 489.588 384.107H465.588C446.388 362.507 443.255 281.441 444.088 243.607C441.288 266.807 443.921 312.941 445.588 333.107L442.588 346.607H393.588C387.921 347.441 377.088 345.507 379.089 331.107C381.089 316.707 389.922 287.107 394.088 274.107C397.288 256.907 405.421 234.941 409.088 226.107L411.345 199.607L421.845 194.107Z" fill="#142FA5"/>
<defs>
<radialGradient id="paint0_radial" cx="0" cy="0" r="1" gradientUnits="userSpaceOnUse" gradientTransform="translate(307.304 365) rotate(90) scale(30 284)">
<stop stop-color="#505465"/>
<stop offset="1" stop-color="#C4C4C4" stop-opacity="0"/>
</radialGradient>
</defs>
</svg>
