<svg width="569" height="304" viewBox="0 0 569 304" fill="none" xmlns="http://www.w3.org/2000/svg">
<ellipse cx="284.304" cy="263" rx="284" ry="30" fill="url(#paint0_radial)"/>
<rect x="350.379" y="85.9304" width="49" height="144.937" transform="rotate(11.9219 350.379 85.9304)" fill="white" stroke="black"/>
<path d="M79.8533 261.813C79.0533 248.613 78.8533 200.313 78.8533 177.812C74.3533 178.479 66.5533 189.713 71.3533 229.313C71.1866 237.813 71.1533 255.813 72.3533 259.813C73.5533 263.813 79.5199 265.719 82.3533 266.172C80.9013 265.583 79.9983 264.206 79.8533 261.813Z" fill="#775543" stroke="black"/>
<path d="M92.3455 183.312C94.3455 213.712 104.845 228.979 109.845 232.812L116.345 246.812C106.657 255.409 88.903 268.832 82.3454 266.172C80.8935 265.583 79.9905 264.205 79.8455 261.812C79.0455 248.613 78.8455 200.312 78.8455 177.812C88.4455 176.612 91.8455 180.979 92.3455 183.312Z" fill="white" stroke="black"/>
<path d="M454.864 267.607L440.845 274.847C447.665 283.789 454.864 301.674 463.199 299.545C483.658 298.267 484.615 303.301 488.583 302.526C497.297 300.822 480.627 296.564 475.702 292.306C482.521 296.138 485.931 296.99 488.583 297.416C491.099 297.82 507.527 299.971 510.179 299.545C512.831 299.119 513.589 296.564 512.073 295.287C510.558 294.009 490.099 289.325 486.31 288.473C482.521 287.622 474.944 286.77 468.882 286.77C464.032 286.77 457.516 273.995 454.864 267.607Z" fill="#FCAECD" stroke="black"/>
<path d="M207.846 130.607C217.046 125.007 218.346 118.607 217.846 116.107L247.345 122.107L253.345 98.6074L212.845 99.6074C204.345 104.941 187.245 116.007 186.845 117.607C186.445 119.207 183.346 124.941 181.846 127.607C175.846 136.107 187.846 150.107 190.346 151.107C192.846 152.107 193.846 146.607 193.846 145.607C193.846 144.607 188.846 137.607 189.846 131.607C190.646 126.807 199.513 123.274 203.846 122.107C201.68 125.274 197.046 132.007 195.846 133.607C194.646 135.207 195.013 137.607 195.346 138.607C196.013 140.607 197.846 144.107 199.846 142.107C201.846 140.107 206.013 133.607 207.846 130.607Z" fill="#FCAECD" stroke="black"/>
<path d="M355.974 66.6074L390.974 67.1074V91.1074L381.473 96.6074V114.607C362.973 144.607 325.573 204.907 323.973 206.107C322.373 207.307 313.307 208.941 308.973 209.607C314.14 201.441 325.173 181.607 327.973 167.607C330.773 153.607 332.807 132.774 333.473 124.107C313.807 125.107 270.273 127.107 253.473 127.107C236.673 127.107 232.807 123.107 232.973 121.107C241.973 117.607 241.973 94.7317 230.974 97.1074C230.174 95.5074 233.307 94.7741 234.974 94.6074C278.174 95.8074 320.974 88.7741 336.974 85.1074L355.974 66.6074Z" fill="#142FA5" stroke="black"/>
<path d="M397.359 259.619C400.959 256.419 403.526 238.952 404.359 230.619C397.026 225.118 375.759 214.218 349.359 214.618C322.959 215.018 274.359 220.452 253.359 223.119C244.959 221.119 232.859 223.952 227.859 225.619C139.059 244.419 120.345 238.107 109.359 229.619C104.159 240.419 105.859 254.119 107.359 259.619C112.859 264.119 392.859 263.619 397.359 259.619Z" fill="black" stroke="black"/>
<path d="M288.345 126.462C321.945 195.662 346.679 221.962 354.845 226.462C332.679 234.962 286.245 249.662 277.845 240.462C269.445 231.262 265.012 196.295 264.845 179.962C246.045 215.562 209.679 235.129 192.845 240.462H175.845C184.679 228.962 204.245 202.262 211.845 187.462C221.345 168.962 225.345 163.462 247.345 133.962C264.945 110.362 282.012 119.129 288.345 126.462Z" fill="black" stroke="black"/>
<path d="M347.624 108.27C355.668 94.6958 389.629 60.3269 405.605 44.8392L415.809 78.3804C412.946 83.4469 399.843 101.503 370.335 133.196C340.828 164.889 334.132 155.969 334.473 147.548C335.505 140.111 339.579 121.844 347.624 108.27Z" fill="#3263CE" stroke="black"/>
<path d="M433.487 36.767C434.332 33.9539 433.487 12.8218 432.958 2.60742C416.889 2.60742 406.528 12.9893 403.356 18.1802L392.255 19.6872V27.2224C384.717 37.2694 380.978 38.2741 377.983 42.7952C377.278 44.972 378.934 51.3351 391.198 59.3726L391.198 74.9455L392.255 109.607L422.248 82.983L423.443 62.8891V48.321C426.439 45.6418 432.641 39.5802 433.487 36.767Z" fill="#FCAECD" stroke="black"/>
<path d="M428.346 34.6074C429.146 31.8074 428.346 10.7741 427.846 0.607422C436.846 1.27409 456.945 9.40742 465.345 36.6074V77.6074L468.345 119.607C470.345 143.441 471.845 191.707 461.845 194.107C451.845 196.507 451.345 196.107 452.345 195.607V159.107C460.179 151.107 472.345 132.307 458.345 121.107C445.845 106.774 420.245 78.1074 417.845 78.1074L418.846 60.6074V46.1074C421.679 43.4408 427.546 37.4074 428.346 34.6074Z" fill="#3263CE" stroke="black"/>
<path d="M398.845 92.1074L421.088 76.6074C435.088 89.0074 453.588 110.441 461.088 119.607C475.888 131.607 463.255 149.941 455.088 157.607C450.688 225.607 460.921 268.941 466.588 282.107H442.588C423.388 260.507 420.255 179.441 421.088 141.607C418.288 164.807 420.921 210.941 422.588 231.107L419.588 244.607H370.588C364.921 245.441 354.088 243.507 356.089 229.107C358.089 214.707 366.922 185.107 371.088 172.107C374.288 154.907 382.421 132.941 386.088 124.107L388.345 97.6074L398.845 92.1074Z" fill="#142FA5" stroke="black"/>
<defs>
<radialGradient id="paint0_radial" cx="0" cy="0" r="1" gradientUnits="userSpaceOnUse" gradientTransform="translate(284.304 263) rotate(90) scale(30 284)">
<stop stop-color="#505465"/>
<stop offset="1" stop-color="#C4C4C4" stop-opacity="0"/>
</radialGradient>
</defs>
</svg>
