<svg width="733" height="712" viewBox="0 0 733 712" fill="none" xmlns="http://www.w3.org/2000/svg">
<path d="M623.809 279.179C627.397 279.682 632.113 275.367 634.022 273.147C632.131 279.544 633.863 283.704 634.965 284.985C631.364 284.55 626.665 288.769 624.766 290.933C626.623 283.042 624.901 279.81 623.809 279.179Z" fill="#FFDFAB" stroke="black" stroke-width="0.582095"/>
<path d="M152.111 145.463C198.437 136.607 231.78 137.023 277.68 143.257C305.731 147.582 334.318 147.118 362.307 142.375C389.684 137.736 420.556 135.338 444.383 150.314C472.755 168.147 493.35 195.784 508.405 221.832C525.078 250.679 535.592 281.105 565.313 303.432C579.784 314.303 596.768 320.318 614.18 327.187C631.638 334.075 646.221 341.607 658.601 354.03C687.616 383.147 683.078 427.544 674.026 461.969C668.869 481.583 658.783 500.659 639.773 513.827C624.182 524.627 605.873 529.264 585.532 529.863C532.482 531.426 485.04 503.959 431.471 510.519C384.301 516.295 340.581 538.671 301.185 559.195C262.801 579.193 218.653 597.611 171.905 591.583C130.959 586.303 83.1122 564.581 74.7902 528.887C69.5922 506.592 77.2288 484.738 85.6924 463.733C92.5451 446.726 97.7878 429.706 101.582 412.064C109.551 375.005 108.211 334.429 99.2236 297.509C94.7858 279.278 82.2742 264.657 74.8675 247.478C69.4334 234.874 67.4549 220.329 69.3777 207.056C71.5224 192.252 84.3042 177.694 97.9478 168.115C113.374 157.284 132.289 149.252 152.111 145.463Z" stroke="#3263CE" stroke-width="1.74628" stroke-linecap="round" stroke-dasharray="14.55 14.55"/>
<path d="M614.301 264.75C637.675 342.894 653.991 418.059 627.214 470.547C600.616 522.611 530.531 551.833 469.158 564.798C407.963 577.339 354.909 573.881 278.786 568.16C202.663 562.439 102.688 554.124 64.4656 499.116C26.0643 444.53 48.8096 342.497 101.442 283.481C154.467 224.63 191.708 198.407 268.714 162.637C345.328 126.703 437.643 107.088 487.732 119.76C538.391 132.175 591.497 186.348 614.301 264.75Z" fill="#8EC2FE" fill-opacity="0.25"/>
<path d="M209.47 170.528L523.877 170.528C529.282 170.529 533.294 175.537 532.114 180.812L504.194 305.613C503.629 308.14 501.387 309.936 498.798 309.936H219.683C216.852 309.936 214.478 307.798 214.183 304.982L201.076 179.847C200.554 174.865 204.461 170.528 209.47 170.528Z" fill="#373737" stroke="black" stroke-width="0.582095"/>
<path d="M213.618 175.761L519.595 175.762C523.905 175.762 527.092 179.776 526.115 183.974L498.584 302.227C498.246 303.677 496.954 304.703 495.466 304.703H223.082C221.448 304.703 220.076 303.472 219.899 301.848L206.963 183.181C206.532 179.22 209.634 175.761 213.618 175.761Z" fill="white" stroke="black" stroke-width="0.582095"/>
<rect x="217.588" y="307.717" width="288.439" height="188.011" rx="11.3509" fill="#F5F3F1" stroke="black" stroke-width="0.582095"/>
<g filter="url(#filter0_i)">
<rect x="319.604" y="424.711" width="84.4072" height="58.3553" rx="2.32838" fill="#E6E6E6"/>
</g>
<rect x="319.895" y="425.002" width="83.8251" height="57.7732" rx="2.03733" stroke="black" stroke-width="0.582095"/>
<rect x="225.609" y="330.799" width="20.4094" height="79.7266" fill="#E9E9E9"/>
<rect x="478.825" y="330.799" width="20.4094" height="79.7266" fill="#E9E9E9"/>
<g filter="url(#filter1_i)">
<rect x="249.612" y="328.197" width="225.62" height="84.9275" rx="2.32838" fill="#E9E9E9"/>
</g>
<rect x="253.364" y="331.662" width="13.312" height="6.53345" rx="0.873142" fill="#666666" stroke="black" stroke-width="0.582095"/>
<rect x="269.066" y="331.663" width="13.312" height="6.53345" rx="0.873142" fill="#666666" stroke="black" stroke-width="0.582095"/>
<rect x="284.768" y="331.663" width="13.312" height="6.53345" rx="0.873142" fill="#666666" stroke="black" stroke-width="0.582095"/>
<rect x="300.469" y="331.663" width="13.312" height="6.53345" rx="0.873142" fill="#666666" stroke="black" stroke-width="0.582095"/>
<rect x="316.172" y="331.663" width="13.312" height="6.53345" rx="0.873142" fill="#666666" stroke="black" stroke-width="0.582095"/>
<rect x="331.873" y="331.663" width="13.312" height="6.53345" rx="0.873142" fill="#666666" stroke="black" stroke-width="0.582095"/>
<rect x="347.574" y="331.663" width="13.312" height="6.53345" rx="0.873142" fill="#666666" stroke="black" stroke-width="0.582095"/>
<rect x="363.276" y="331.663" width="13.312" height="6.53345" rx="0.873142" fill="#666666" stroke="black" stroke-width="0.582095"/>
<rect x="378.978" y="331.663" width="13.312" height="6.53345" rx="0.873142" fill="#666666" stroke="black" stroke-width="0.582095"/>
<rect x="394.68" y="331.663" width="13.312" height="6.53345" rx="0.873142" fill="#666666" stroke="black" stroke-width="0.582095"/>
<rect x="410.381" y="331.663" width="13.312" height="6.53345" rx="0.873142" fill="#666666" stroke="black" stroke-width="0.582095"/>
<rect x="426.083" y="331.663" width="13.312" height="6.53345" rx="0.873142" fill="#666666" stroke="black" stroke-width="0.582095"/>
<rect x="442.511" y="395.922" width="13.312" height="6.53345" rx="0.873142" fill="#666666" stroke="black" stroke-width="0.582095"/>
<rect x="442.511" y="403.703" width="13.312" height="6.53345" rx="0.873142" fill="#666666" stroke="black" stroke-width="0.582095"/>
<rect x="426.856" y="403.703" width="13.312" height="6.53345" rx="0.873142" fill="#666666" stroke="black" stroke-width="0.582095"/>
<rect x="458.167" y="403.703" width="13.312" height="6.53345" rx="0.873142" fill="#666666" stroke="black" stroke-width="0.582095"/>
<rect x="441.785" y="331.663" width="13.312" height="6.53345" rx="0.873142" fill="#666666" stroke="black" stroke-width="0.582095"/>
<rect x="457.486" y="331.663" width="13.312" height="6.53345" rx="0.873142" fill="#666666" stroke="black" stroke-width="0.582095"/>
<rect x="253.364" y="340.913" width="12.1955" height="11.2774" rx="0.873142" fill="#666666" stroke="black" stroke-width="0.582095"/>
<rect x="276.533" y="354.906" width="12.1955" height="11.2774" rx="0.873142" fill="#666666" stroke="black" stroke-width="0.582095"/>
<rect x="268.537" y="340.913" width="12.1955" height="11.2774" rx="0.873142" fill="#666666" stroke="black" stroke-width="0.582095"/>
<rect x="291.706" y="354.906" width="12.1955" height="11.2774" rx="0.873142" fill="#666666" stroke="black" stroke-width="0.582095"/>
<rect x="279.919" y="368.902" width="12.1955" height="11.2774" rx="0.873142" fill="#666666" stroke="black" stroke-width="0.582095"/>
<rect x="287.155" y="382.898" width="12.1955" height="11.2774" rx="0.873142" fill="#666666" stroke="black" stroke-width="0.582095"/>
<rect x="283.71" y="340.913" width="12.1955" height="11.2774" rx="0.873142" fill="#666666" stroke="black" stroke-width="0.582095"/>
<rect x="306.879" y="354.906" width="12.1955" height="11.2774" rx="0.873142" fill="#666666" stroke="black" stroke-width="0.582095"/>
<rect x="295.092" y="368.902" width="12.1955" height="11.2774" rx="0.873142" fill="#666666" stroke="black" stroke-width="0.582095"/>
<rect x="302.327" y="382.898" width="12.1955" height="11.2774" rx="0.873142" fill="#666666" stroke="black" stroke-width="0.582095"/>
<rect x="298.882" y="340.913" width="12.1955" height="11.2774" rx="0.873142" fill="#666666" stroke="black" stroke-width="0.582095"/>
<rect x="322.051" y="354.906" width="12.1955" height="11.2774" rx="0.873142" fill="#666666" stroke="black" stroke-width="0.582095"/>
<rect x="310.264" y="368.902" width="12.1955" height="11.2774" rx="0.873142" fill="#666666" stroke="black" stroke-width="0.582095"/>
<rect x="317.499" y="382.898" width="12.1955" height="11.2774" rx="0.873142" fill="#666666" stroke="black" stroke-width="0.582095"/>
<rect x="314.054" y="340.913" width="12.1955" height="11.2774" rx="0.873142" fill="#666666" stroke="black" stroke-width="0.582095"/>
<rect x="337.223" y="354.906" width="12.1955" height="11.2774" rx="0.873142" fill="#666666" stroke="black" stroke-width="0.582095"/>
<rect x="325.437" y="368.902" width="12.1955" height="11.2774" rx="0.873142" fill="#666666" stroke="black" stroke-width="0.582095"/>
<rect x="332.672" y="382.898" width="12.1955" height="11.2774" rx="0.873142" fill="#666666" stroke="black" stroke-width="0.582095"/>
<rect x="329.227" y="340.913" width="12.1955" height="11.2774" rx="0.873142" fill="#666666" stroke="black" stroke-width="0.582095"/>
<rect x="352.396" y="354.906" width="12.1955" height="11.2774" rx="0.873142" fill="#666666" stroke="black" stroke-width="0.582095"/>
<rect x="340.608" y="368.902" width="12.1955" height="11.2774" rx="0.873142" fill="#666666" stroke="black" stroke-width="0.582095"/>
<rect x="347.845" y="382.898" width="12.1955" height="11.2774" rx="0.873142" fill="#666666" stroke="black" stroke-width="0.582095"/>
<rect x="344.399" y="340.913" width="12.1955" height="11.2774" rx="0.873142" fill="#666666" stroke="black" stroke-width="0.582095"/>
<rect x="367.568" y="354.906" width="12.1955" height="11.2774" rx="0.873142" fill="#666666" stroke="black" stroke-width="0.582095"/>
<rect x="355.781" y="368.902" width="12.1955" height="11.2774" rx="0.873142" fill="#666666" stroke="black" stroke-width="0.582095"/>
<rect x="363.017" y="382.898" width="12.1955" height="11.2774" rx="0.873142" fill="#666666" stroke="black" stroke-width="0.582095"/>
<rect x="359.571" y="340.913" width="12.1955" height="11.2774" rx="0.873142" fill="#666666" stroke="black" stroke-width="0.582095"/>
<rect x="382.741" y="354.906" width="12.1955" height="11.2774" rx="0.873142" fill="#666666" stroke="black" stroke-width="0.582095"/>
<rect x="370.954" y="368.902" width="12.1955" height="11.2774" rx="0.873142" fill="#666666" stroke="black" stroke-width="0.582095"/>
<rect x="378.189" y="382.898" width="12.1955" height="11.2774" rx="0.873142" fill="#666666" stroke="black" stroke-width="0.582095"/>
<rect x="374.744" y="340.913" width="12.1955" height="11.2774" rx="0.873142" fill="#666666" stroke="black" stroke-width="0.582095"/>
<rect x="397.913" y="354.906" width="12.1955" height="11.2774" rx="0.873142" fill="#666666" stroke="black" stroke-width="0.582095"/>
<rect x="386.126" y="368.902" width="12.1955" height="11.2774" rx="0.873142" fill="#666666" stroke="black" stroke-width="0.582095"/>
<rect x="393.361" y="382.898" width="12.1955" height="11.2774" rx="0.873142" fill="#666666" stroke="black" stroke-width="0.582095"/>
<rect x="393.361" y="396.888" width="16.2236" height="12.7164" rx="0.873142" fill="#666666" stroke="black" stroke-width="0.582095"/>
<rect x="412.563" y="396.888" width="12.1425" height="12.7164" rx="0.873142" fill="#666666" stroke="black" stroke-width="0.582095"/>
<rect x="389.916" y="340.913" width="12.1955" height="11.2774" rx="0.873142" fill="#666666" stroke="black" stroke-width="0.582095"/>
<rect x="413.085" y="354.906" width="12.1955" height="11.2774" rx="0.873142" fill="#666666" stroke="black" stroke-width="0.582095"/>
<rect x="401.298" y="368.902" width="12.1955" height="11.2774" rx="0.873142" fill="#666666" stroke="black" stroke-width="0.582095"/>
<rect x="408.534" y="382.898" width="12.1955" height="11.2774" rx="0.873142" fill="#666666" stroke="black" stroke-width="0.582095"/>
<rect x="405.089" y="340.913" width="12.1955" height="11.2774" rx="0.873142" fill="#666666" stroke="black" stroke-width="0.582095"/>
<rect x="428.258" y="354.906" width="12.1955" height="11.2774" rx="0.873142" fill="#666666" stroke="black" stroke-width="0.582095"/>
<rect x="416.471" y="368.902" width="12.1955" height="11.2774" rx="0.873142" fill="#666666" stroke="black" stroke-width="0.582095"/>
<rect x="423.707" y="382.898" width="12.1955" height="11.2774" rx="0.873142" fill="#666666" stroke="black" stroke-width="0.582095"/>
<rect x="420.262" y="340.913" width="12.1955" height="11.2774" rx="0.873142" fill="#666666" stroke="black" stroke-width="0.582095"/>
<rect x="443.431" y="354.906" width="12.1955" height="11.2774" rx="0.873142" fill="#666666" stroke="black" stroke-width="0.582095"/>
<rect x="431.644" y="368.902" width="12.1955" height="11.2774" rx="0.873142" fill="#666666" stroke="black" stroke-width="0.582095"/>
<rect x="438.879" y="382.898" width="31.9193" height="11.2774" rx="0.873142" fill="#666666" stroke="black" stroke-width="0.582095"/>
<rect x="435.434" y="340.913" width="12.1955" height="11.2774" rx="0.873142" fill="#666666" stroke="black" stroke-width="0.582095"/>
<rect x="458.604" y="354.906" width="12.1955" height="11.2774" rx="0.873142" fill="#666666" stroke="black" stroke-width="0.582095"/>
<rect x="450.481" y="340.913" width="19.779" height="11.2774" rx="0.873142" fill="#666666" stroke="black" stroke-width="0.582095"/>
<rect x="446.606" y="368.902" width="24.1914" height="11.2774" rx="0.873142" fill="#666666" stroke="black" stroke-width="0.582095"/>
<rect x="253.364" y="354.906" width="19.779" height="11.2774" rx="0.873142" fill="#666666" stroke="black" stroke-width="0.582095"/>
<rect x="253.364" y="368.902" width="23.1808" height="11.2774" rx="0.873142" fill="#666666" stroke="black" stroke-width="0.582095"/>
<rect x="253.364" y="382.898" width="30.8213" height="11.2774" rx="0.873142" fill="#666666" stroke="black" stroke-width="0.582095"/>
<rect x="253.364" y="396.888" width="27.3679" height="12.7164" rx="0.873142" fill="#666666" stroke="black" stroke-width="0.582095"/>
<rect x="283.71" y="396.888" width="12.1955" height="12.7164" rx="0.873142" fill="#666666" stroke="black" stroke-width="0.582095"/>
<rect x="298.662" y="396.888" width="15.8607" height="12.7164" rx="0.873142" fill="#666666" stroke="black" stroke-width="0.582095"/>
<rect x="317.499" y="396.888" width="72.8853" height="12.7164" rx="0.873142" fill="#666666" stroke="black" stroke-width="0.582095"/>
<rect x="249.069" y="307.698" width="225.62" height="8.10485" fill="black"/>
<g filter="url(#filter2_d)">
<path d="M24.2864 292.12L46.401 285.285L59.2987 281.71L65.2655 280.742L69.7778 279.718L74.3658 279.088L81.2198 276.32L87.0052 274.943L89.8872 273.583L95.335 272.073L107.326 270.655L118.689 267.07L123.138 265.837L124.85 264.595L130.497 263.389L133.624 262.982L135.805 272.728L138.931 281.624L140.798 288.363L142.48 295.727L144.022 300.395L145.212 305.135L148.947 318.613L150.534 326.652L152.748 334.608L154.352 340.394L157.789 352.856L159.556 360.225L161.356 370.049L163.994 380.873L166.177 388.151L162.126 389.857L153.1 392.016L146.417 394.342L136.106 398.349L129.561 400.389L122.706 401.776L116.13 404.398L105.192 407.771L87.9034 412.251L86.0476 409.794L83.978 406.084L82.4535 402.338L81.1779 397.736L81.8355 392.907L78.7671 392.316L74.5364 393.217L67.8668 395.337L60.5679 400.446L58.068 391.427L55.3665 384.611L53.8141 380.329L50.1173 372.546L46.8495 357.931L39.2578 341.002L31.6777 318.789L29.7631 311.881L24.2864 292.12Z" fill="#EBEBEB"/>
</g>
<path d="M22.9756 291.868C25.3249 300.344 27.6741 308.821 30.0234 317.297C30.764 319.969 32.0788 322.547 32.8639 325.248C34.2052 329.863 36.0318 334.38 37.3207 339.031C38.3561 342.767 40.4471 346.286 41.9835 349.856C43.2429 352.781 44.862 355.901 45.7094 358.959C46.4057 361.471 46.797 364.032 47.4943 366.548C48.1289 368.838 48.4223 371.631 49.6108 373.674C52.2798 378.262 53.772 383.414 55.6995 388.366C57.156 392.109 58.1802 395.913 59.2524 399.782C59.7528 401.587 60.0322 403.652 60.8615 405.332C61.3586 406.339 61.7997 407.918 62.4217 408.791C63.3768 410.132 63.7575 411.441 64.2095 413.072C64.5711 414.376 64.7425 416.323 66.1984 416.801" stroke="black" stroke-width="0.582095" stroke-linecap="round"/>
<path d="M66.1976 416.761C69.5154 415.978 72.7871 416.135 75.9023 414.732C76.168 414.613 76.346 414.16 76.6318 413.982C77.3717 413.519 78.2835 413.567 79.1085 413.472C80.2602 413.339 81.8212 413.11 82.9212 412.805C85.074 412.208 87.3198 412.222 89.4424 411.634C98.8568 409.025 108.906 407.122 117.798 403.209C121.318 401.66 125.518 400.999 129.213 399.975C134.89 398.401 140.422 396.37 145.859 394.105C150.973 391.975 160.987 389.798 166.272 388.333" stroke="black" stroke-width="0.582095" stroke-linecap="round"/>
<path d="M132.951 262.661C134.366 267.451 135.819 272.227 137.421 276.873C138.801 280.875 140.055 285.152 140.958 289.354C141.451 291.645 142.157 294.185 142.793 296.482C143.885 300.422 144.892 304.395 145.988 308.348C147.306 313.103 148.758 317.765 149.967 322.536C150.663 325.28 151.175 328.041 151.925 330.784C152.587 333.205 153.266 335.623 153.936 338.041C155.351 343.145 156.384 348.225 157.793 353.311C158.416 355.558 159.026 358.042 159.491 360.264C160.038 362.881 160.52 365.856 161.247 368.48C161.536 369.521 161.649 370.658 161.854 371.686C162.075 372.792 162.355 373.833 162.663 374.942C163.299 377.236 163.763 379.59 164.418 381.95C164.675 382.878 165.915 387.973 166.278 388.325" stroke="black" stroke-width="0.582095" stroke-linecap="round"/>
<path d="M22.9754 291.867C33.9404 288.828 44.2988 285.321 55.2716 282.28C57.4205 281.684 59.3925 281.5 61.5793 281.168C64.5343 280.72 67.4017 279.793 70.3693 279.44C71.9243 279.254 72.5395 279.436 73.9666 278.761C74.8209 278.357 75.6509 277.986 76.5095 277.596C78.9043 276.51 81.5047 275.997 84.0351 275.263C86.2688 274.614 88.5214 273.383 90.7542 272.764C95.839 271.355 101.157 271.791 106.277 270.372C110.044 269.328 113.672 268.004 117.431 266.962C119.081 266.505 121.551 266.369 122.737 265.173C123.625 264.278 125.318 264.14 126.499 263.812C127.381 263.568 128.262 263.323 129.144 263.079C130.162 262.797 130.99 263.807 132.035 262.596" stroke="black" stroke-width="0.582095" stroke-linecap="round"/>
<path d="M22.4664 292.328C21.4852 294.126 20.7119 296.283 20.1106 298.253C19.846 299.119 19.4181 299.711 19.6658 300.605C19.8093 301.123 19.9963 301.341 20.4161 301.653C20.9694 302.064 21.0475 303.293 21.2178 303.907C21.8719 306.267 22.526 308.627 23.1801 310.987C23.4279 311.881 23.6395 312.799 23.9268 313.681C24.1313 314.31 24.7528 314.601 24.9825 315.193C25.9679 317.733 26.3971 320.207 27.6116 322.637C30.1814 327.777 31.3786 333.675 32.9172 339.227C33.4699 341.221 33.9204 343.298 34.6045 345.251C34.9302 346.181 35.8367 346.87 36.1917 347.659C37.7094 351.03 38.768 354.593 39.7543 358.152C40.7082 361.593 41.4502 365.29 42.9365 368.484C43.4727 369.637 44.6318 370.935 45.2959 372.147C46.1888 373.776 46.5289 375.702 47.0283 377.504C48.3697 382.344 49.43 387.318 50.7801 392.19C50.9402 392.767 51.6817 393.762 52.0327 394.284C52.5532 395.057 53.5231 396.085 54.1664 396.876C55.8598 398.959 56.241 402.702 56.9746 405.349C57.4147 406.937 57.8548 408.525 58.2949 410.113C58.691 411.542 59.5656 412.519 59.9699 413.859C60.2323 414.729 60.4557 415.612 60.6984 416.487C60.9926 417.549 61.8271 418.377 62.1275 419.346C62.5295 420.642 63.4872 424.742 64.4034 425.26" stroke="black" stroke-width="0.582095" stroke-linecap="round"/>
<path d="M65.762 426.017C67.3446 425.317 69.1499 424.81 70.2774 423.442C70.9605 422.613 72.1812 422.195 73.1374 421.803C76.49 420.428 80.5732 419.492 84.1246 418.807C87.2131 418.21 90.4338 417.981 93.5752 417.671C97.0554 417.327 99.6659 416.919 102.608 415.538C112.777 410.763 124.23 410.674 134.791 407.253C140.802 405.305 147.616 404.141 152.967 400.932C155.653 399.321 156.707 398.996 159.685 398.204C160.853 397.894 164.74 396.733 164.795 396.315L162.979 394.571" stroke="black" stroke-width="0.582095" stroke-linecap="round"/>
<path d="M44.805 318.933C50.1705 315.228 57.7609 315.938 62.4621 311.35C64.4565 309.404 68.9261 309.064 71.5503 308.336C73.3527 307.837 75.1106 307.348 76.951 307.016C82.5945 305.998 88.1923 304.894 93.577 302.798C100.706 300.022 108.331 298.779 115.673 296.744C118.482 295.966 121.48 296.516 123.69 294.522" stroke="black" stroke-width="0.582095" stroke-linecap="round"/>
<path d="M46.4226 332.812C52.7216 331.066 59.0666 329.596 65.1252 327.151C68.7374 325.694 72.4449 324.645 76.1892 323.607C80.6197 322.379 85.445 322.204 89.9907 321.515C93.8032 320.938 97.5272 319.603 101.24 318.575C104.456 317.683 107.775 317.728 111.048 317.201C114.199 316.693 117.178 316.031 120.261 315.213C122.41 314.643 124.618 314.888 126.716 314.379C128.197 314.02 129.283 313.077 130.545 312.363" stroke="black" stroke-width="0.582095" stroke-linecap="round"/>
<path d="M51.6848 349.501C55.2639 348.555 58.8582 347.688 62.4563 346.817C63.5959 346.541 68.2409 346.004 69.3403 344.785C70.2318 343.796 72.5271 343.188 73.6703 342.665C77.0516 341.117 80.5578 340.008 84.2787 339.583C90.599 338.861 97.1636 336.897 103.299 335.196C114.112 332.199 126.528 332.184 136.252 326.063" stroke="black" stroke-width="0.582095" stroke-linecap="round"/>
<path d="M55.7475 368.754C59.7446 368.18 63.7133 367.428 67.6848 366.701C71.0679 366.082 75.1294 365.682 78.4796 364.611C80.9621 363.818 83.2488 362.405 85.8085 361.696C87.1117 361.335 88.415 360.973 89.7182 360.612C91.1846 360.206 93.7853 359.868 94.9404 358.776C96.2062 357.579 97.8321 357.408 99.5586 356.93C102.364 356.152 105.214 355.681 108.018 354.903C112.749 353.592 117.736 352.406 122.276 350.563C124.511 349.655 126.897 349.218 129.103 348.264C130.466 347.674 131.787 347.131 133.075 346.384C135.173 345.168 137.738 344.941 140.069 344.428" stroke="black" stroke-width="0.582095" stroke-linecap="round"/>
<path d="M61.6832 385.577C65.5311 384.457 69.4251 383.497 72.8461 381.369C74.5612 380.302 76.8468 380.332 78.6934 379.554C80.8881 378.629 81.9227 378.136 84.3946 377.85C86.3887 377.619 88.3949 377.451 90.3535 377.012C93.7739 376.246 97.4024 376.314 100.763 375.383C102.64 374.863 104.491 374.344 106.406 373.978C112.914 372.736 119.318 371.514 125.715 369.741C129.908 368.579 132.236 364.877 136.788 364.761" stroke="black" stroke-width="0.582095" stroke-linecap="round"/>
<path d="M82.3713 397.036C85.0704 396.288 87.4344 395.677 90.1647 395.478C92.7146 395.291 95.7329 393.482 98.1168 392.513C99.8973 391.789 101.652 391.408 103.544 391.097C104.491 390.942 105.415 390.65 106.339 390.393C107.994 389.935 109.423 390.365 111.06 390.323C112.947 390.275 115.182 389.216 117.015 388.708C120.789 387.662 124.645 387.23 128.399 386.19C132.243 385.124 136.087 384.059 139.931 382.994C143.587 381.98 147.024 380.391 150.708 379.37" stroke="black" stroke-width="0.582095" stroke-linecap="round"/>
<path d="M59.8737 400.415C60.9965 399.316 62.35 398.09 63.7888 397.455C64.6389 397.08 65.353 396.489 66.1318 395.992C67.0624 395.398 68.1112 394.985 69.1533 394.631C70.3257 394.234 81.0137 390.794 80.8139 393.207C80.6978 394.609 80.2897 395.94 80.3083 397.366C80.3216 398.386 80.5917 399.445 80.8505 400.427C81.2876 402.086 81.867 403.711 82.6216 405.254C83.7687 407.6 84.7173 410.452 86.8868 412.02" stroke="black" stroke-width="0.582095" stroke-linecap="round"/>
<path d="M59.3193 400.839C60.8689 401.532 62.4264 402.326 63.9446 403.083C64.7778 403.499 65.5725 403.982 66.402 404.404C66.9032 404.658 67.536 404.84 67.9898 405.174C69.8209 406.521 71.7246 407.756 73.725 408.835C75.1936 409.627 76.7159 410.463 78.4126 410.71C79.6541 410.891 80.8607 411.182 82.0848 411.455C83.7547 411.828 85.5559 411.296 87.2485 411.383" stroke="black" stroke-width="0.582095" stroke-linecap="round"/>
<path d="M44.2042 285.452C44.2966 285.519 46.1598 284.941 46.4414 284.639C46.2586 284.317 45.8488 284.118 45.6803 283.772C45.3157 283.024 45.0859 282.209 44.8982 281.399C44.819 281.058 44.7531 280.696 44.7916 280.347C44.8177 280.111 45.0004 279.944 45.0955 279.737C45.2967 279.297 45.3969 279.163 45.8449 279.052C46.8719 278.798 47.5778 279.563 48.2866 280.136C48.827 280.574 49.2504 281.418 49.5052 282.043C49.7812 282.721 49.9706 283.427 50.2544 284.105C50.9929 285.868 51.0125 287.809 51.1006 289.686C51.1564 290.877 51.1454 292.067 51.1904 293.258C51.2256 294.187 50.6755 294.969 49.7001 294.631C49.3734 294.518 49.1649 294.294 48.9202 294.05C48.5742 293.706 48.1845 293.409 47.9039 293.002C47.7517 292.781 47.61 292.529 47.4801 292.294C47.4721 292.279 47.2482 291.867 47.2385 291.884C47.1806 291.987 47.2656 292.241 47.2616 292.365C47.2475 292.799 47.3827 293.222 47.3186 293.662C47.2581 294.076 47.2282 295.164 47.8311 295.305C48.6853 295.506 49.3955 295.975 50.2392 296.178C50.5161 296.245 50.7627 296.257 51.0401 296.18C51.2722 296.116 51.4192 295.805 51.5338 295.613C51.9465 294.924 52.484 294.319 52.9014 293.63C54.039 291.753 53.8841 289.578 53.3152 287.525C53.1688 286.997 53.1449 286.448 52.9984 285.92C52.8336 285.325 52.672 284.73 52.504 284.136C52.2108 283.1 51.8305 282.09 51.5259 281.056C51.3406 280.427 51.1279 279.817 50.7996 279.244C50.2775 278.334 49.8001 277.128 48.8474 276.577C47.7009 275.914 46.3893 275.701 45.0855 275.941C44.3078 276.084 43.6521 276.466 43.1297 277.059C42.8086 277.424 42.734 277.735 42.6574 278.179C42.5748 278.658 42.6328 279.166 42.6764 279.646C42.7076 279.99 42.638 280.355 42.6233 280.699C42.6037 281.162 42.6753 281.605 42.775 282.055C42.8559 282.421 42.8203 282.8 42.8914 283.168C42.9475 283.459 43.048 283.746 43.1271 284.031C43.1911 284.263 43.2482 284.384 43.3761 284.571C43.5075 284.762 44.0133 285.313 44.2042 285.452Z" fill="#C4C4C4" stroke="black" stroke-width="0.582095" stroke-linecap="round"/>
<path d="M58.8295 279.928C58.9798 280.47 59.0449 281.039 59.4976 281.415C60.0823 281.39 61.4326 281.245 61.3478 281.113C61.0308 280.624 60.7484 279.664 60.6347 279.1C60.5397 278.629 60.362 278.196 60.3632 277.71C60.3651 277.011 60.6334 276.307 60.8298 275.646C60.9741 275.16 61.2115 274.786 61.5094 274.376C61.7509 274.044 61.9218 273.7 62.3227 273.589C62.8259 273.449 63.0517 273.606 63.4919 273.91L63.4935 273.912C64.3269 274.489 64.9211 275.52 65.3222 276.428C65.7547 277.408 66.0965 278.426 66.3821 279.457L66.3908 279.488C66.7234 280.688 67.0632 281.914 67.2277 283.149C67.3506 284.073 67.4238 284.998 67.5475 285.921C67.6282 286.522 67.8028 287.123 67.6236 287.735C67.5516 287.981 67.3907 288.109 67.2761 288.329C67.0067 288.846 66.8287 288.971 66.2723 289.02C65.5882 289.081 64.905 289.171 64.2197 289.212C63.8734 289.232 63.4486 289.424 63.1092 289.363C62.8721 289.32 62.6295 289.015 62.4074 288.91C62.2643 288.843 62.1288 288.809 62.0031 288.709C61.7935 288.544 61.4231 288.345 61.1586 288.332C60.9634 288.322 61.0982 288.589 61.1275 288.682C61.2921 289.201 61.7078 289.723 62.0559 290.132C62.2913 290.408 62.5963 290.637 62.8617 290.883C62.9233 290.94 63.0356 291.099 63.1416 291.097C63.6751 291.087 64.2333 291.209 64.7462 291.343C64.8639 291.373 64.8859 291.37 65.0174 291.346C65.7531 291.207 66.5116 291.162 67.2543 291.074C67.4816 291.047 67.8602 291.05 68.0889 290.928C68.6269 290.642 69.1236 290.488 69.4215 289.961C69.9259 289.07 70.0778 288.083 70.1696 287.065C70.2134 286.58 70.107 286.161 70.0798 285.688C70.0383 284.967 69.8864 284.244 69.7871 283.528C69.7008 282.907 69.4721 282.289 69.3045 281.685C69.1513 281.132 69.0169 280.572 68.8185 280.034C68.2485 278.487 67.7876 276.981 67.0369 275.505C66.6447 274.733 66.1408 274.014 65.6928 273.274C65.4377 272.852 65.2003 272.358 64.7776 272.076C64.2075 271.695 63.5089 271.484 62.8782 271.229C62.6616 271.142 62.4241 271.011 62.1822 271.003C61.5555 270.98 60.9022 271.229 60.306 271.394C59.2049 271.7 58.4843 272.721 58.2686 273.823C58.0355 275.014 58.0539 276.311 58.2742 277.514C58.4245 278.334 58.6067 279.124 58.8295 279.928Z" fill="#C4C4C4" stroke="black" stroke-width="0.582095" stroke-linecap="round"/>
<path d="M73.5788 276.316C73.805 277.132 74.0451 277.723 74.5716 278.38C74.943 278.201 77.0141 277.434 76.915 277.294C76.8577 277.213 76.273 276.447 76.1929 276.328C76.106 276.198 76.0125 276.087 75.971 275.937C75.8274 275.419 75.7984 274.962 75.6861 274.448C75.6058 274.08 75.7625 273.568 75.8259 273.207C75.8548 273.042 75.8269 272.843 75.8743 272.688C75.9932 272.299 76.02 271.898 76.1502 271.502C76.2418 271.223 76.6993 271.207 76.946 271.139C77.2051 271.067 77.4686 270.936 77.7189 271.053C77.8799 271.128 78.1194 271.115 78.2972 271.163C78.5843 271.24 78.8235 271.394 79.0768 271.537C79.5987 271.833 79.9259 272.219 80.3421 272.663C80.64 272.981 80.8329 273.522 81.0092 273.915C81.15 274.229 81.2788 274.541 81.4445 274.844C81.7387 275.38 81.8599 275.903 81.9209 276.511C81.9765 277.065 82.229 277.572 82.2433 278.137C82.271 279.226 82.4025 280.332 82.3284 281.421C82.2972 281.879 82.1233 282.419 81.9822 282.857L81.9808 282.862C81.8624 283.229 81.6513 283.53 81.3963 283.821C80.9375 284.343 80.1051 284.441 79.4583 284.593C79.1825 284.657 78.4413 284.654 78.1894 284.404C78.0574 284.273 77.1866 283.628 77.151 283.763C77.1181 283.888 77.1936 284.045 77.2269 284.165C77.3942 284.769 77.4953 285.355 77.9654 285.803C78.3465 286.167 78.7829 286.423 79.2661 286.62C79.4297 286.687 79.5884 286.858 79.7612 286.892C80.3399 287.005 81.0383 286.903 81.6205 286.85C82.0978 286.806 82.4876 286.415 82.8112 286.089C83.2297 285.668 83.7323 284.935 83.7994 284.329C83.8404 283.957 84.0662 283.604 84.1391 283.231C84.1901 282.971 84.2427 282.645 84.3576 282.402C84.5721 281.949 84.5545 281.316 84.6084 280.818C84.6487 280.444 84.6787 280.073 84.703 279.696C84.7673 278.697 84.7764 277.767 84.4547 276.798C84.2297 276.12 84.0314 275.434 83.7777 274.766C83.6185 274.347 83.3179 273.994 83.0768 273.623C82.7736 273.156 82.5314 272.543 82.1723 272.131C81.6436 271.524 81.2335 270.824 80.78 270.162C80.2244 269.351 79.8138 268.538 78.9361 268.026C78.4402 267.737 77.9019 267.539 77.3319 267.603C76.7931 267.664 76.2061 267.631 75.683 267.775C75.3325 267.873 74.9594 267.944 74.6203 268.074C74.4578 268.136 74.1918 268.392 74.0466 268.506C72.6219 269.634 72.8681 271.758 72.9825 273.369C73.0551 274.39 73.3058 275.331 73.5788 276.316Z" fill="#C4C4C4" stroke="black" stroke-width="0.582095" stroke-linecap="round"/>
<path d="M88.7164 270.872C88.9863 271.577 89.2565 272.577 89.9839 272.904C93.1104 272.448 91.7098 271.883 90.444 270.457C90.0995 269.91 90.0169 269.483 89.8956 268.838C89.8507 268.598 89.7628 268.308 89.848 268.075C90.0226 267.598 90.2499 266.868 90.6232 266.509C91.0835 266.065 91.382 265.793 91.9731 265.63C92.0657 265.604 92.2833 265.496 92.3672 265.563C92.6288 265.771 92.9878 265.944 93.2098 266.19C93.6962 266.729 94.1186 267.406 94.4882 268.031C95.2679 269.349 95.68 270.816 96.0874 272.286C96.3591 273.266 96.8146 274.406 96.6812 275.43C96.602 276.038 96.3713 276.591 96.1815 277.169C95.9777 277.789 95.7031 278.458 95.4123 279.04C95.225 279.414 95.1731 279.821 94.9991 280.193C94.8865 280.434 94.7157 280.646 94.6178 280.896C94.4699 281.274 94.4561 281.249 94.0604 281.246C93.6705 281.243 93.0827 280.663 92.8039 280.435C92.3233 280.041 91.9383 279.527 91.4562 279.14C91.0634 278.825 91.2602 279.687 91.2757 279.759C91.3425 280.07 91.3903 280.416 91.512 280.715C91.6701 281.102 91.9977 281.399 92.239 281.733C92.7153 282.393 93.181 283.17 94.0244 283.401C94.3687 283.496 94.7096 283.497 95.0655 283.499L95.0831 283.499C95.6543 283.502 96.227 283.484 96.798 283.5C96.9113 283.504 96.9734 283.529 97.0575 283.436C97.6906 282.735 97.8133 281.582 98.0125 280.695C98.355 279.17 98.2263 277.535 98.0139 276.003C97.8691 274.959 98.0007 273.876 97.7177 272.855C97.3654 271.584 97.0024 270.313 96.5975 269.057C96.503 268.764 96.3241 268.486 96.1975 268.204C95.7974 267.313 95.5205 266.381 95.0737 265.51C94.5647 264.518 94.1826 263.428 93.0751 262.984C91.7685 262.459 90.485 262.746 89.177 263.139C88.4643 263.353 87.9683 264.178 87.883 264.874C87.8473 265.166 87.8072 265.456 87.773 265.748C87.737 266.055 87.8185 266.383 87.7467 266.68C87.7071 266.844 87.7762 267.004 87.8098 267.164C87.8783 267.491 87.9163 267.824 87.9356 268.157C87.9526 268.451 87.98 268.677 88.0601 268.966C88.2426 269.624 88.4726 270.234 88.7164 270.872Z" fill="#C4C4C4" stroke="black" stroke-width="0.582095" stroke-linecap="round"/>
<path d="M103.603 267.983C103.917 269.118 104.367 269.784 105.243 270.587C105.518 270.51 107.824 269.952 107.741 269.836C107.513 269.521 106.614 268.552 106.367 268.255C106.184 268.035 105.976 267.838 105.792 267.618C105.643 267.44 105.627 267.129 105.58 266.916C105.484 266.483 105.267 266.134 105.153 265.722C105.047 265.342 105.133 264.793 105.145 264.411C105.152 264.191 105.088 263.843 105.149 263.628C105.246 263.283 105.449 262.954 105.58 262.619C105.665 262.402 105.721 262.19 105.893 262.027C106.093 261.837 106.284 261.79 106.541 261.719C107.049 261.579 107.503 261.705 108.02 261.757C108.539 261.81 108.798 262.137 109.096 262.519C109.405 262.917 109.751 263.29 110.031 263.711C110.345 264.184 110.487 264.639 110.637 265.18C110.908 266.156 111.059 267.117 111.202 268.118C111.27 268.592 111.292 269.071 111.322 269.55C111.348 269.978 111.469 270.377 111.505 270.801C111.558 271.429 111.31 272.096 111.224 272.714C111.15 273.249 111.027 273.674 110.869 274.179C110.768 274.502 110.567 274.784 110.446 275.104C110.36 275.331 110.316 275.381 110.177 275.573C109.936 275.906 109.59 276.708 109.041 276.62C108.508 276.535 108.091 276.193 107.593 276.029C107.417 275.971 106.594 275.115 106.547 275.59C106.513 275.934 106.671 276.311 106.77 276.638C106.956 277.257 107.216 277.845 107.481 278.433C107.838 279.228 108.279 279.943 109.06 280.386C109.567 280.672 109.995 280.656 110.538 280.737C110.864 280.786 111.358 280.99 111.688 280.842C111.856 280.766 111.992 280.592 112.126 280.472C112.277 280.335 112.518 280.215 112.629 280.04C113.452 278.745 113.584 277.272 113.759 275.775C113.867 274.844 113.809 273.838 113.746 272.905C113.69 272.093 113.718 271.27 113.652 270.462C113.59 269.707 113.477 268.964 113.46 268.203C113.447 267.659 113.461 267.071 113.319 266.542C113.194 266.075 113 265.664 112.837 265.21C112.368 263.912 111.571 262.783 110.899 261.582C110.38 260.655 109.739 260.017 109.007 259.287L108.983 259.264C108.639 258.922 108.645 258.971 108.114 258.95C106.584 258.888 104.313 258.746 103.429 260.309C103.175 260.757 103.107 261.421 103.065 261.936C103.038 262.266 103.035 262.592 103.015 262.924C102.98 263.514 102.816 264.08 102.844 264.668C102.898 265.829 103.294 266.868 103.603 267.983Z" fill="#C4C4C4" stroke="black" stroke-width="0.582095" stroke-linecap="round"/>
<path d="M117.145 266.103C117.5 266.388 117.54 266.508 117.945 266.672C119.078 266.358 119.813 266.401 119.726 266.287C119.385 265.844 119.249 265.75 118.938 265.286C118.346 264.406 117.89 263.152 117.961 262.082C117.985 261.709 118.259 261.211 118.446 260.88C118.662 260.499 118.838 260.19 119.105 259.844C119.638 259.153 120.422 259.498 121.209 259.57C121.802 259.625 122.549 259.716 123.103 259.946C124.322 260.452 125.422 261.228 125.79 262.558C126.121 263.751 125.937 265.057 125.992 266.291C126.041 267.368 126.118 268.401 126.046 269.488C126.018 269.906 126.054 270.329 126.04 270.749C126.033 270.943 126.01 271.332 125.914 271.502C125.52 272.198 124.772 272.702 124.023 272.944C123.569 273.09 123.004 273.204 122.538 273.067C121.801 272.851 121.285 272.503 120.727 271.986C120.68 271.943 119.624 271.303 119.62 271.703C119.616 272.309 119.786 272.938 120.001 273.511C120.24 274.149 120.541 274.922 121.256 275.127C121.801 275.283 122.316 275.292 122.872 275.184C123.652 275.032 124.567 274.886 125.313 274.568C125.876 274.328 126.431 273.822 126.902 273.448C127.267 273.158 127.669 272.879 128.007 272.558C128.527 272.066 128.733 271.489 128.884 270.807C129.466 268.168 128.732 265.218 127.852 262.734C127.618 262.072 127.377 261.361 127.025 260.751C126.695 260.178 126.327 259.635 125.989 259.067C125.592 258.399 124.901 257.721 124.198 257.38C123.37 256.977 122.318 256.964 121.423 256.811C121.155 256.766 120.846 256.62 120.575 256.677C120.117 256.772 119.653 256.804 119.2 256.929C118.726 257.061 118.152 257.281 117.802 257.633C116.839 258.605 115.161 259.321 115.625 260.997C116.013 262.395 115.944 263.161 116.332 264.56C116.452 264.994 116.778 265.809 117.145 266.103Z" fill="#C4C4C4" stroke="black" stroke-width="0.582095" stroke-linecap="round"/>
<path d="M27.9646 288.376C28.1802 288.823 28.7003 289.647 28.9892 290.054C29.0914 290.221 29.7623 289.84 29.892 289.804C30.0649 289.756 30.2722 289.726 30.4318 289.641C30.6533 289.523 31.5574 289.508 31.6117 289.23C31.6331 289.121 31.4438 288.624 31.4438 288.624C31.4438 288.624 30.9696 287.494 30.5323 287.003C29.9606 286.362 29.4999 285.585 29.427 284.7C29.3751 284.069 29.3482 283.478 29.6703 282.909C29.8498 282.592 30.0966 282.215 30.4968 282.2C31.1639 282.176 31.834 282.026 32.3851 282.474L32.3991 282.485C32.727 282.752 33 282.974 33.2615 283.299C33.485 283.576 33.6536 284.023 33.8107 284.353C34.2566 285.289 34.6739 286.275 34.9507 287.274C35.2735 288.438 35.6525 289.651 36.1842 290.74C36.6392 291.672 36.7887 292.665 36.8122 293.687C36.8227 294.141 36.8151 294.543 36.7759 294.985C36.7489 295.29 36.6606 295.741 36.4932 296C36.2872 296.319 36.1581 296.572 35.8408 296.826C35.5048 297.095 35.126 297.352 34.7121 297.485C34.1186 297.677 33.695 297.686 33.1474 297.376C32.7063 297.126 32.3259 296.716 31.9431 296.39C31.7554 296.23 31.4204 296.208 31.1943 296.168C31.0374 296.14 30.7131 296.026 30.5673 296.158C30.1906 296.498 30.3592 297.001 30.5268 297.412C30.769 298.007 31.2977 298.247 31.7364 298.682C32.3305 299.271 33.3886 299.285 34.1649 299.315C35.1394 299.354 36.1521 299.074 37.0493 298.726C37.8585 298.412 38.2025 297.746 38.5043 296.953C38.6701 296.518 38.7047 296.012 38.7286 295.548C38.7584 294.968 38.8192 294.408 38.7016 293.833C38.6539 293.599 38.6685 293.363 38.604 293.13C38.5279 292.856 38.4759 292.585 38.4328 292.305C38.3493 291.761 38.1684 291.234 38.0803 290.692C37.9518 289.901 37.7161 289.131 37.6255 288.332C37.5549 287.709 37.4717 287.089 37.4077 286.467C37.3681 286.083 37.2031 285.682 37.0974 285.31C37.0046 284.982 36.9217 284.655 36.741 284.364C36.6089 284.152 36.4691 283.945 36.3266 283.74C36.1104 283.428 35.7961 283.112 35.6389 282.763C35.5325 282.527 35.2061 282.33 35.0113 282.174C34.6761 281.904 34.3328 281.642 34.0249 281.34C33.5488 280.873 32.9822 280.489 32.4692 280.061C31.7005 279.421 30.304 279.02 29.3014 279.297C28.4898 279.522 27.8453 279.894 27.2611 280.5C27.0507 280.719 26.8522 280.946 26.6572 281.179C26.4833 281.387 26.3702 281.598 26.2595 281.845C26.1885 282.004 26.2107 282.175 26.1605 282.34C26.0273 282.776 26.1306 283.216 26.2488 283.642C26.3476 283.999 26.4196 284.38 26.5516 284.726C26.8409 285.482 26.9971 286.3 27.3308 287.035C27.5308 287.476 27.7374 287.905 27.9477 288.341L27.9646 288.376Z" fill="#C4C4C4" stroke="black" stroke-width="0.582095" stroke-linecap="round"/>
<path d="M20.5341 302.535C21.2383 301.461 22.0446 300.516 22.4695 299.331C22.6126 298.932 22.9787 298.499 23.2767 298.199C23.7512 297.721 23.7243 297.136 24.2656 296.648" stroke="black" stroke-width="0.582095" stroke-linecap="round"/>
<path d="M21.8655 300.888C22.1452 304.032 23.037 306.958 23.8744 309.979C24.2182 311.22 24.9517 312.465 25.8001 313.446C26.5647 314.331 26.9359 315.905 27.3328 316.98C27.8665 318.426 28.5306 319.408 28.9414 320.89C29.326 322.278 29.7107 323.666 30.0953 325.053C30.7858 327.545 30.8253 330.608 32.1627 332.922C33.0033 334.377 33.3751 335.937 34.0557 337.449C34.4845 338.401 34.9825 339.338 35.1137 340.447C35.147 340.729 34.8592 340.6 34.7673 340.784C34.6256 341.068 35.0207 341.903 35.0907 342.156C35.1966 342.538 35.3892 344.093 35.8045 344.271C36.6478 344.632 37.2602 346.298 37.4891 347.124C37.8126 348.291 38.033 349.129 38.7653 350.09C39.19 350.648 39.5779 351.943 39.7855 352.645C40.2145 354.095 40.5939 355.562 40.9979 357.019C41.686 359.502 42.59 361.843 43.2873 364.358C43.6675 365.73 43.8514 366.597 45.2603 367.075C46.153 367.377 46.3739 369.966 46.6311 370.894C47.3809 373.6 48.1308 376.305 48.8806 379.011C49.2376 380.299 49.3211 381.522 49.6805 382.818C50.0743 384.239 50.6214 385.668 50.6792 387.139C50.7293 388.414 51.3517 389.77 51.6928 391.001C51.8948 391.729 52.2356 392.328 52.507 393.017C52.7083 393.528 53.0578 394.564 53.4214 394.934C54.0484 395.571 54.5677 396.766 54.8031 397.616C55.1788 398.971 56.2919 400.325 56.9203 401.569C58.26 404.221 58.7813 407.362 59.5713 410.212C59.7466 410.845 59.9219 411.477 60.0972 412.11C60.2976 412.833 60.8856 413.249 61.0973 413.876C61.5422 415.192 62.515 416.126 63.0817 417.298C63.5894 418.349 64.0794 419.107 64.401 420.267C64.5511 420.808 64.8981 423.255 65.5182 423.376" stroke="black" stroke-width="0.582095" stroke-linecap="round"/>
<path d="M66.8537 422.514C68.2 422.156 69.4136 421.984 70.3689 421.064C71.7453 419.737 72.2777 419.523 74.3032 418.985C75.3797 418.699 78.3059 418.496 78.811 417.644C79.6764 416.184 84.3514 416.241 86.1393 415.825C90.9322 414.712 95.6139 413.462 100.465 412.549C104.542 411.782 108.765 412.548 112.096 409.774C113.067 408.965 114.989 409.228 115.752 408.343C116.358 407.641 117.376 407.539 118.246 407.307C122.007 406.308 125.721 405.603 129.534 404.795C135.629 403.505 141.918 402.628 147.539 399.91C149.045 399.182 150.848 399.148 152.303 398.314C153.172 397.817 154.38 397.956 155.229 397.422C156.626 396.543 157.789 396.024 159.499 395.57C160.923 395.191 161.24 394.847 162.784 394.436C163.722 394.187 165.074 393.659 164.928 393.5L163.907 391.781" stroke="black" stroke-width="0.582095" stroke-linecap="round"/>
<path d="M22.4093 298.968C23.4126 301.504 24.1247 303.974 24.7269 306.635C24.9108 307.447 25.0369 308.38 25.3587 309.172C25.6232 309.822 26.3847 310.35 26.6025 311.103C27.0525 312.66 28.1579 314.205 29.0183 315.596C29.5369 316.435 29.7287 317.638 30.1751 318.544C30.6856 319.58 30.9624 320.653 31.2815 321.757C31.5198 322.581 32.1062 323.099 32.3389 323.834C32.6727 324.889 32.9539 325.962 33.2609 327.024C33.6693 328.437 33.1277 329.725 33.5334 331.129C34.1743 333.346 35.706 335.102 36.445 337.249C37.265 339.632 38.2532 341.924 38.9513 344.339C39.5518 346.416 40.0641 348.553 41.1214 350.441C42.0129 352.034 42.5369 353.582 43.0387 355.318C43.3234 356.303 43.5839 357.297 43.8933 358.274C44.1065 358.948 44.5789 360.888 45.3041 361.179C45.745 361.356 45.9382 362.977 46.0464 363.352C46.4184 364.639 47.1922 365.735 47.5632 367.018C47.7491 367.661 47.8867 368.364 48.2465 368.943C48.5621 369.451 49.0097 369.706 49.2022 370.317C49.5058 371.28 49.7637 372.259 50.0439 373.229C50.5195 374.874 50.7643 376.512 51.239 378.154C51.5919 379.375 52.3538 380.43 52.6979 381.62C52.987 382.62 53.2762 383.621 53.5654 384.621C54.1861 386.769 54.358 389.036 55.4567 390.989C56.5685 392.965 57.5927 394.961 58.7606 396.885C59.8024 398.602 60.5067 400.73 61.0625 402.653C61.8213 405.278 62.2713 408.366 63.8022 410.638C64.7541 412.051 64.9863 414.647 65.4451 416.234C65.5738 416.679 65.8808 418.753 66.3866 418.701C66.9798 418.639 67.6405 418.47 68.2278 418.439C71.2862 418.277 74.3456 416.696 77.5088 416.511C79.466 416.397 81.6566 415.505 83.5468 415.002C85.3002 414.536 86.8111 413.704 88.4532 413.268C90.5257 412.717 92.7666 411.835 94.9285 411.69C97.4474 411.522 100.369 411.394 102.794 410.749C106.347 409.805 109.504 408.324 112.923 407.1C114.36 406.586 115.071 406.288 116.303 405.531C118.112 404.421 121.01 404.185 123.044 403.644C124.101 403.363 125.158 403.082 126.215 402.802C129.61 401.899 136.052 400.031 136.052 400.031C136.052 400.031 141.277 398.305 143.856 397.62C148.73 396.324 153.784 395.314 158.372 393.379C159.63 392.849 161.492 392.286 161.492 392.286C162.732 391.925 164.824 391.442 164.824 391.442C164.824 391.442 164.791 390.927 164.415 388.88" stroke="black" stroke-width="0.582095" stroke-linecap="round"/>
<path d="M13.1874 395.214L8.25914 400.513C15.826 409.537 29.0204 423.129 41.0335 435.108C42.0335 436.105 43.0252 437.091 44.0048 438.063C50.7763 444.775 56.9691 450.784 61.2867 454.911C62.4198 454.18 65.0403 452.28 66.4568 450.523C62.8821 446.35 56.919 439.954 50.1003 432.826C49.1476 431.831 48.1781 430.82 47.1962 429.8C35.1827 417.316 21.2947 403.304 13.1874 395.214Z" fill="#8EC2FE" stroke="black" stroke-width="0.582095" stroke-linecap="round" stroke-linejoin="round"/>
<path d="M12.3529 395.672L8.69051 399.61C8.1803 399.181 7.1405 398.14 7.06296 397.403C6.96604 396.481 10.0144 393.497 10.8834 394.028C11.5786 394.453 12.1527 395.301 12.3529 395.672Z" fill="#DADADA"/>
<path d="M7.88539 404.898C6.93412 403.459 8.33781 402.409 9.15856 402.064L14.2287 407.749L12.5186 407.683C22.4022 420.062 25.955 422.397 26.1703 422.458C26.3855 422.52 26.9383 421.926 27.6691 422.605C28.2537 423.149 28.6636 425.932 28.7955 427.256C28.2281 427.328 26.551 426.914 24.3816 424.675C21.6698 421.875 9.07448 406.697 7.88539 404.898Z" fill="#DADADA"/>
<path d="M45.8119 428.355C44.6566 430.887 41.1867 432.986 39.5961 433.719C40.5967 434.718 41.5891 435.705 42.5694 436.677C44.0339 435.982 47.3139 433.95 48.7173 431.386C47.7642 430.389 46.7943 429.377 45.8119 428.355Z" fill="#DADADA"/>
<path d="M61.2429 454.956C62.3847 454.217 65.0263 452.295 66.4572 450.522L72.1119 460.984L73.2128 463.024L71.3713 461.78L61.2429 454.956Z" fill="#DADADA"/>
<path d="M71.3713 461.78L73.2128 463.024L72.1119 460.984M71.3713 461.78L61.2429 454.956C62.3847 454.217 65.0263 452.295 66.4572 450.522L72.1119 460.984M71.3713 461.78C71.3671 461.589 71.5094 461.163 72.1119 460.984M8.69051 399.61L12.3529 395.672C12.1527 395.301 11.5786 394.453 10.8834 394.028C10.0144 393.497 6.96604 396.481 7.06296 397.403C7.1405 398.14 8.1803 399.181 8.69051 399.61ZM9.15856 402.064C8.33781 402.409 6.93412 403.459 7.88539 404.898C9.07448 406.697 21.6698 421.875 24.3816 424.675C26.551 426.914 28.2281 427.328 28.7955 427.256C28.6636 425.932 28.2537 423.149 27.6691 422.605C26.9383 421.926 26.3855 422.52 26.1703 422.458C25.955 422.397 22.4022 420.062 12.5186 407.683L14.2287 407.749L9.15856 402.064ZM39.5961 433.719C41.1867 432.986 44.6566 430.887 45.8119 428.355C46.7943 429.377 47.7642 430.389 48.7173 431.386C47.3139 433.95 44.0339 435.982 42.5694 436.677C41.5891 435.705 40.5967 434.718 39.5961 433.719Z" stroke="black" stroke-width="0.582095" stroke-linecap="round" stroke-linejoin="round"/>
<path d="M155.981 274.012C162.103 269.889 163.378 256.934 163.25 250.972C169.089 263.239 177.375 267.187 180.787 267.629C174.739 271.87 173.36 284.657 173.426 290.52C165.502 276.037 158.494 273.48 155.981 274.012Z" fill="#FFDFAB" stroke="black" stroke-width="0.582095"/>
<path d="M553.498 324.472C560.808 325.495 570.411 316.707 574.3 312.185C570.449 325.214 573.975 333.687 576.22 336.296C568.886 335.411 559.317 344.003 555.449 348.41C559.23 332.34 555.724 325.755 553.498 324.472Z" fill="#FFDFAB" stroke="black" stroke-width="0.582095"/>
<path d="M597.326 273.189C600.915 273.692 605.63 269.377 607.539 267.157C605.649 273.554 607.38 277.714 608.482 278.995C604.881 278.56 600.183 282.779 598.284 284.943C600.14 277.052 598.419 273.819 597.326 273.189Z" fill="#FFDFAB" stroke="black" stroke-width="0.582095"/>
<path d="M164.435 178.899C168.339 177.999 171.503 171.681 172.597 168.635C173.173 175.986 176.604 179.598 178.248 180.485C174.359 181.459 171.174 187.672 170.069 190.656C168.867 181.776 165.813 179.118 164.435 178.899Z" fill="#FFDFAB" stroke="black" stroke-width="0.582095"/>
<circle cx="578.603" cy="162.088" r="44.1466" transform="rotate(119.997 578.603 162.088)" fill="#3263CE"/>
<circle cx="578.601" cy="162.089" r="38.3641" transform="rotate(119.997 578.601 162.089)" fill="#142FA5"/>
<path fill-rule="evenodd" clip-rule="evenodd" d="M520.392 153.228C516.016 148.659 512.647 144.286 510.847 140.956C513.862 139.45 519.843 137.914 527.191 136.998C528.157 142.697 529.361 146.758 530.205 140.766C530.423 139.22 530.498 137.851 530.463 136.64C535.535 136.164 541.099 135.997 546.698 136.322C547.464 143.706 548.749 152.148 549.693 145.125C550.206 141.306 549.869 138.495 549.202 136.502C555.085 137.003 560.933 138.079 566.215 139.945C566.004 145.476 568.116 155.171 568.583 155.368C569.014 155.551 571.532 147.931 571.681 142.278C593.59 153.461 590.478 176.998 565.255 177.867C562.724 177.955 560.106 177.658 557.448 177.049C561.378 171.961 565.449 165.044 565.304 164.623C565.126 164.109 555.975 170.029 551.784 175.318C546.667 173.387 541.522 170.502 536.669 167.146C542.263 163.312 548.057 154.697 542.255 159.734C540.491 161.266 538.975 162.515 537.71 163.558C536.581 164.488 535.652 165.254 534.923 165.91C530.536 162.73 526.427 159.203 522.841 155.7C526.261 153.225 526.743 150.532 526.387 149.173C524.561 150.354 522.395 151.804 520.392 153.228Z" fill="url(#paint0_linear)"/>
<path d="M510.847 140.956L510.717 140.696L510.448 140.83L510.591 141.094L510.847 140.956ZM520.392 153.228L520.182 153.429L520.356 153.611L520.561 153.465L520.392 153.228ZM527.191 136.998L527.477 136.949L527.431 136.674L527.155 136.709L527.191 136.998ZM530.205 140.766L529.917 140.725L529.917 140.725L530.205 140.766ZM530.463 136.64L530.435 136.351L530.164 136.376L530.172 136.649L530.463 136.64ZM546.698 136.322L546.988 136.292L546.962 136.046L546.715 136.032L546.698 136.322ZM549.693 145.125L549.981 145.163L549.981 145.163L549.693 145.125ZM549.202 136.502L549.227 136.212L548.785 136.174L548.926 136.594L549.202 136.502ZM566.215 139.945L566.506 139.956L566.514 139.742L566.312 139.671L566.215 139.945ZM568.583 155.368L568.469 155.636L568.469 155.636L568.583 155.368ZM571.681 142.278L571.814 142.019L571.403 141.809L571.39 142.27L571.681 142.278ZM565.255 177.867L565.265 178.158L565.265 178.158L565.255 177.867ZM557.448 177.049L557.218 176.871L556.94 177.231L557.383 177.333L557.448 177.049ZM565.304 164.623L565.579 164.528L565.579 164.528L565.304 164.623ZM551.784 175.318L551.681 175.591L551.88 175.666L552.012 175.499L551.784 175.318ZM536.669 167.146L536.504 166.905L536.155 167.144L536.503 167.385L536.669 167.146ZM542.255 159.734L542.446 159.954L542.446 159.954L542.255 159.734ZM537.71 163.558L537.895 163.783L537.895 163.783L537.71 163.558ZM534.923 165.91L534.752 166.145L534.943 166.283L535.118 166.126L534.923 165.91ZM522.841 155.7L522.671 155.464L522.391 155.667L522.638 155.908L522.841 155.7ZM526.387 149.173L526.668 149.1L526.567 148.711L526.229 148.929L526.387 149.173ZM510.591 141.094C512.409 144.456 515.797 148.851 520.182 153.429L520.602 153.026C516.235 148.467 512.886 144.115 511.103 140.818L510.591 141.094ZM527.155 136.709C519.798 137.626 513.777 139.167 510.717 140.696L510.977 141.216C513.947 139.733 519.889 138.202 527.227 137.286L527.155 136.709ZM529.917 140.725C529.813 141.468 529.703 142.049 529.591 142.486C529.478 142.929 529.367 143.201 529.271 143.346C529.224 143.417 529.195 143.435 529.191 143.437C529.191 143.437 529.193 143.436 529.197 143.435C529.2 143.434 529.205 143.433 529.21 143.433C529.222 143.432 529.23 143.434 529.232 143.435C529.233 143.435 529.208 143.425 529.16 143.371C529.114 143.318 529.06 143.239 529 143.128C528.756 142.675 528.496 141.854 528.234 140.765C527.974 139.686 527.719 138.37 527.477 136.949L526.904 137.046C527.146 138.474 527.404 139.804 527.668 140.901C527.93 141.99 528.204 142.878 528.488 143.404C528.56 143.538 528.637 143.657 528.722 143.754C528.805 143.849 528.909 143.938 529.038 143.984C529.18 144.034 529.328 144.023 529.462 143.953C529.585 143.888 529.681 143.782 529.757 143.667C529.908 143.439 530.038 143.089 530.155 142.63C530.274 142.165 530.387 141.561 530.494 140.806L529.917 140.725ZM530.172 136.649C530.206 137.841 530.133 139.194 529.917 140.725L530.494 140.806C530.713 139.247 530.789 137.861 530.754 136.632L530.172 136.649ZM546.715 136.032C541.1 135.705 535.521 135.873 530.435 136.351L530.49 136.93C535.55 136.455 541.099 136.288 546.681 136.613L546.715 136.032ZM549.404 145.086C549.287 145.959 549.166 146.578 549.045 146.983C548.985 147.187 548.928 147.323 548.879 147.408C548.824 147.503 548.807 147.485 548.849 147.472C548.923 147.45 548.961 147.497 548.936 147.473C548.906 147.444 548.857 147.377 548.795 147.247C548.673 146.994 548.544 146.591 548.411 146.056C547.882 143.923 547.371 139.987 546.988 136.292L546.409 136.352C546.792 140.042 547.306 144.018 547.846 146.196C547.981 146.74 548.122 147.19 548.27 147.499C548.343 147.651 548.428 147.792 548.533 147.893C548.641 147.997 548.813 148.092 549.019 148.029C549.194 147.976 549.308 147.829 549.383 147.699C549.465 147.558 549.537 147.372 549.603 147.149C549.737 146.7 549.862 146.046 549.981 145.163L549.404 145.086ZM548.926 136.594C549.576 138.537 549.913 141.303 549.404 145.086L549.981 145.163C550.499 141.31 550.162 138.453 549.478 136.409L548.926 136.594ZM566.312 139.671C561.001 137.794 555.128 136.714 549.227 136.212L549.177 136.792C555.043 137.291 560.865 138.364 566.118 140.219L566.312 139.671ZM568.696 155.1C568.758 155.126 568.781 155.166 568.77 155.151C568.766 155.146 568.755 155.129 568.738 155.095C568.705 155.027 568.663 154.923 568.614 154.781C568.515 154.497 568.398 154.089 568.269 153.581C568.01 152.566 567.711 151.17 567.432 149.606C566.872 146.471 566.402 142.69 566.506 139.956L565.924 139.934C565.818 142.732 566.298 146.563 566.858 149.708C567.139 151.283 567.442 152.693 567.704 153.725C567.835 154.24 567.958 154.665 568.064 154.971C568.116 155.123 568.167 155.253 568.216 155.352C568.24 155.401 568.268 155.451 568.299 155.494C568.324 155.527 568.379 155.598 568.469 155.636L568.696 155.1ZM571.39 142.27C571.316 145.064 570.656 148.357 569.957 150.935C569.607 152.223 569.251 153.325 568.956 154.09C568.808 154.475 568.679 154.766 568.578 154.951C568.526 155.046 568.49 155.098 568.47 155.12C568.459 155.132 568.467 155.12 568.493 155.106C568.522 155.09 568.602 155.06 568.696 155.1L568.469 155.636C568.591 155.688 568.702 155.654 568.766 155.62C568.827 155.588 568.873 155.543 568.904 155.507C568.969 155.435 569.031 155.337 569.089 155.23C569.209 155.011 569.348 154.692 569.499 154.299C569.803 153.511 570.166 152.389 570.518 151.088C571.223 148.488 571.897 145.145 571.972 142.286L571.39 142.27ZM565.265 178.158C577.962 177.721 585.208 171.562 586.43 163.987C587.649 156.43 582.838 147.646 571.814 142.019L571.549 142.537C582.434 148.093 587.021 156.669 585.856 163.894C584.693 171.1 577.772 177.145 565.245 177.576L565.265 178.158ZM557.383 177.333C560.062 177.947 562.705 178.246 565.265 178.158L565.245 177.576C562.743 177.663 560.151 177.37 557.514 176.765L557.383 177.333ZM565.029 164.718C565.01 164.664 565.019 164.628 565.017 164.641C565.016 164.646 565.013 164.662 565.004 164.692C564.986 164.751 564.953 164.837 564.902 164.952C564.802 165.181 564.644 165.498 564.434 165.889C564.015 166.669 563.4 167.727 562.656 168.933C561.169 171.345 559.175 174.338 557.218 176.871L557.679 177.227C559.652 174.673 561.658 171.663 563.152 169.239C563.899 168.027 564.52 166.958 564.947 166.164C565.159 165.768 565.326 165.436 565.435 165.186C565.49 165.062 565.533 164.952 565.561 164.861C565.575 164.816 565.587 164.768 565.593 164.722C565.599 164.684 565.606 164.608 565.579 164.528L565.029 164.718ZM552.012 175.499C554.084 172.885 557.394 170.101 560.221 168.029C561.632 166.995 562.916 166.143 563.855 165.584C564.326 165.303 564.703 165.1 564.962 164.984C565.095 164.925 565.182 164.895 565.229 164.885C565.255 164.88 565.244 164.886 565.214 164.881C565.177 164.875 565.071 164.84 565.029 164.718L565.579 164.528C565.526 164.374 565.391 164.32 565.308 164.307C565.233 164.294 565.16 164.305 565.109 164.316C565 164.339 564.868 164.389 564.725 164.452C564.434 164.582 564.034 164.799 563.557 165.084C562.599 165.655 561.299 166.517 559.877 167.56C557.036 169.641 553.676 172.462 551.556 175.138L552.012 175.499ZM536.503 167.385C541.371 170.751 546.536 173.649 551.681 175.591L551.887 175.046C546.798 173.125 541.674 170.253 536.834 166.906L536.503 167.385ZM536.833 167.386C539.665 165.445 542.535 162.307 543.973 160.282C544.332 159.776 544.61 159.328 544.775 158.98C544.857 158.807 544.919 158.643 544.944 158.499C544.965 158.376 544.978 158.155 544.806 158.007C544.637 157.862 544.42 157.901 544.289 157.941C544.137 157.987 543.958 158.077 543.757 158.202C543.351 158.453 542.793 158.882 542.064 159.514L542.446 159.954C543.167 159.328 543.698 158.923 544.063 158.697C544.248 158.582 544.377 158.522 544.458 158.498C544.56 158.467 544.503 158.515 544.427 158.449C544.347 158.381 544.386 158.31 544.37 158.399C544.358 158.467 544.322 158.576 544.249 158.73C544.105 159.034 543.85 159.45 543.498 159.945C542.09 161.927 539.267 165.012 536.504 166.905L536.833 167.386ZM542.064 159.514C540.303 161.044 538.79 162.291 537.525 163.333L537.895 163.783C539.16 162.74 540.679 161.489 542.446 159.954L542.064 159.514ZM537.525 163.333C536.398 164.262 535.463 165.032 534.728 165.693L535.118 166.126C535.841 165.475 536.764 164.714 537.895 163.783L537.525 163.333ZM522.638 155.908C526.233 159.42 530.353 162.957 534.752 166.145L535.094 165.674C530.72 162.504 526.621 158.986 523.045 155.492L522.638 155.908ZM526.105 149.247C526.423 150.46 526.02 153.04 522.671 155.464L523.012 155.936C526.502 153.41 527.062 150.604 526.668 149.1L526.105 149.247ZM520.561 153.465C522.56 152.044 524.722 150.596 526.545 149.418L526.229 148.929C524.4 150.111 522.231 151.564 520.224 152.99L520.561 153.465Z" fill="black"/>
<path d="M517.06 142.793C533.335 149.066 571.453 164.197 581.767 164.844" stroke="black" stroke-width="0.582095"/>
<path fill-rule="evenodd" clip-rule="evenodd" d="M637.189 195.509C640.172 200.907 642.254 205.87 643.118 209.457C639.9 210.124 633.879 210.077 626.725 209.105C627.238 203.493 627.117 199.368 624.825 204.803C624.234 206.204 623.822 207.476 623.552 208.624C618.652 207.806 613.367 206.574 608.171 204.868C609.293 197.718 610.192 189.444 607.548 195.827C606.111 199.295 605.725 202.028 605.856 204.074C600.435 202.131 595.193 199.656 590.681 196.578C592.26 191.416 592.692 181.754 592.301 181.451C591.941 181.172 587.665 187.723 586.111 193.013C568.256 176.999 577.069 155.592 601.059 161.075C603.467 161.625 605.861 162.559 608.215 163.797C603.239 167.611 597.673 173.115 597.705 173.548C597.743 174.077 607.85 170.783 613.121 166.844C617.461 169.943 621.589 173.947 625.325 178.323C619.095 180.539 611.481 187.211 618.207 183.913C620.253 182.91 621.994 182.112 623.447 181.445C624.743 180.85 625.811 180.361 626.661 179.924C630.002 184.017 632.994 188.369 635.499 192.567C631.656 194.045 630.528 196.464 630.524 197.833C632.541 197.177 634.945 196.351 637.189 195.509Z" fill="url(#paint1_linear)"/>
<path d="M643.118 209.457L643.177 209.742L643.472 209.681L643.401 209.389L643.118 209.457ZM637.189 195.509L637.444 195.368L637.322 195.148L637.087 195.237L637.189 195.509ZM626.725 209.105L626.435 209.079L626.41 209.356L626.686 209.394L626.725 209.105ZM624.825 204.803L625.093 204.917L625.093 204.917L624.825 204.803ZM623.552 208.624L623.504 208.911L623.774 208.956L623.836 208.691L623.552 208.624ZM608.171 204.868L607.884 204.823L607.845 205.067L608.081 205.145L608.171 204.868ZM607.548 195.827L607.279 195.715L607.279 195.715L607.548 195.827ZM605.856 204.074L605.757 204.348L606.174 204.497L606.146 204.055L605.856 204.074ZM590.681 196.578L590.402 196.492L590.34 196.697L590.517 196.818L590.681 196.578ZM592.301 181.451L592.123 181.681L592.123 181.681L592.301 181.451ZM586.111 193.013L585.917 193.23L586.26 193.538L586.39 193.095L586.111 193.013ZM601.059 161.075L600.994 161.359L600.994 161.359L601.059 161.075ZM608.215 163.797L608.392 164.028L608.753 163.752L608.35 163.54L608.215 163.797ZM597.705 173.548L597.995 173.527L597.995 173.527L597.705 173.548ZM613.121 166.844L613.29 166.607L613.117 166.483L612.947 166.611L613.121 166.844ZM625.325 178.323L625.423 178.598L625.821 178.456L625.546 178.134L625.325 178.323ZM618.207 183.913L618.079 183.652L618.079 183.652L618.207 183.913ZM623.447 181.445L623.568 181.709L623.568 181.709L623.447 181.445ZM626.661 179.924L626.887 179.74L626.738 179.558L626.529 179.665L626.661 179.924ZM635.499 192.567L635.603 192.839L635.926 192.715L635.749 192.418L635.499 192.567ZM630.524 197.833L630.233 197.832L630.232 198.235L630.614 198.11L630.524 197.833ZM643.401 209.389C642.528 205.766 640.433 200.778 637.444 195.368L636.934 195.65C639.911 201.036 641.979 205.974 642.835 209.526L643.401 209.389ZM626.686 209.394C633.849 210.366 639.91 210.419 643.177 209.742L643.059 209.172C639.89 209.829 633.909 209.787 626.764 208.817L626.686 209.394ZM625.093 204.917C625.377 204.242 625.625 203.723 625.84 203.34C626.057 202.95 626.229 202.722 626.354 202.611C626.384 202.584 626.407 202.568 626.424 202.558C626.442 202.548 626.45 202.546 626.449 202.546C626.439 202.548 626.417 202.545 626.405 202.537C626.403 202.535 626.423 202.55 626.454 202.613C626.484 202.673 626.515 202.76 626.544 202.88C626.66 203.366 626.701 204.204 626.676 205.295C626.651 206.376 626.563 207.679 626.435 209.079L627.015 209.132C627.144 207.725 627.233 206.408 627.258 205.308C627.283 204.217 627.246 203.311 627.11 202.744C627.075 202.6 627.032 202.467 626.976 202.354C626.921 202.244 626.845 202.132 626.732 202.056C626.61 201.972 626.466 201.945 626.32 201.979C626.186 202.009 626.068 202.086 625.967 202.176C625.767 202.354 625.557 202.652 625.332 203.056C625.103 203.465 624.845 204.006 624.557 204.69L625.093 204.917ZM623.836 208.691C624.101 207.56 624.508 206.304 625.093 204.917L624.557 204.69C623.96 206.105 623.542 207.391 623.269 208.558L623.836 208.691ZM608.081 205.145C613.292 206.856 618.592 208.091 623.504 208.911L623.6 208.337C618.713 207.521 613.442 206.292 608.262 204.592L608.081 205.145ZM607.816 195.938C608.145 195.145 608.413 194.592 608.628 194.241C608.736 194.065 608.823 193.95 608.89 193.883C608.965 193.808 608.975 193.83 608.929 193.832C608.851 193.835 608.824 193.779 608.841 193.807C608.861 193.84 608.891 193.914 608.917 194.052C608.968 194.32 608.989 194.731 608.981 195.268C608.947 197.409 608.445 201.246 607.884 204.823L608.459 204.913C609.02 201.34 609.528 197.465 609.563 195.277C609.571 194.731 609.551 194.272 609.489 193.943C609.458 193.781 609.413 193.625 609.338 193.504C609.261 193.377 609.121 193.242 608.907 193.25C608.726 193.257 608.581 193.368 608.477 193.473C608.364 193.586 608.25 193.744 608.131 193.938C607.893 194.328 607.611 194.913 607.279 195.715L607.816 195.938ZM606.146 204.055C606.019 202.063 606.393 199.374 607.816 195.938L607.279 195.715C605.828 199.217 605.432 201.994 605.565 204.092L606.146 204.055ZM590.517 196.818C595.055 199.914 600.321 202.399 605.757 204.348L605.954 203.8C600.55 201.863 595.331 199.398 590.845 196.337L590.517 196.818ZM592.123 181.681C592.07 181.64 592.058 181.595 592.064 181.612C592.066 181.618 592.072 181.636 592.08 181.672C592.094 181.743 592.107 181.851 592.118 181.998C592.14 182.29 592.149 182.703 592.144 183.214C592.134 184.234 592.068 185.625 591.94 187.169C591.684 190.262 591.183 193.943 590.402 196.492L590.959 196.663C591.758 194.052 592.263 190.32 592.52 187.217C592.649 185.662 592.716 184.257 592.726 183.22C592.731 182.702 592.722 182.27 592.699 181.955C592.687 181.799 592.672 181.663 592.65 181.557C592.64 181.504 592.626 181.45 592.607 181.402C592.592 181.363 592.557 181.281 592.48 181.221L592.123 181.681ZM586.39 193.095C587.158 190.481 588.603 187.544 589.906 185.289C590.557 184.163 591.168 183.214 591.636 182.567C591.872 182.241 592.066 182 592.207 181.851C592.279 181.775 592.326 181.735 592.35 181.72C592.362 181.712 592.352 181.721 592.322 181.728C592.289 181.736 592.204 181.744 592.123 181.681L592.48 181.221C592.376 181.141 592.261 181.145 592.19 181.161C592.124 181.177 592.068 181.208 592.029 181.234C591.95 181.286 591.866 181.364 591.785 181.45C591.617 181.627 591.405 181.893 591.165 182.225C590.682 182.893 590.059 183.86 589.402 184.998C588.088 187.272 586.618 190.254 585.832 192.931L586.39 193.095ZM601.124 160.791C589.046 158.031 580.673 162.026 577.627 168.865C574.588 175.686 576.931 185.17 585.917 193.23L586.306 192.796C577.436 184.842 575.257 175.616 578.159 169.101C581.053 162.604 589.082 158.636 600.994 161.359L601.124 160.791ZM608.35 163.54C605.978 162.291 603.561 161.348 601.124 160.791L600.994 161.359C603.374 161.902 605.744 162.826 608.079 164.055L608.35 163.54ZM597.995 173.527C597.999 173.584 597.981 173.618 597.986 173.606C597.988 173.602 597.994 173.588 598.01 173.562C598.042 173.512 598.094 173.439 598.171 173.343C598.323 173.152 598.551 172.893 598.846 172.577C599.436 171.946 600.28 171.103 601.282 170.152C603.287 168.25 605.914 165.927 608.392 164.028L608.038 163.566C605.54 165.481 602.896 167.818 600.882 169.729C599.874 170.685 599.022 171.537 598.421 172.18C598.122 172.5 597.881 172.772 597.715 172.98C597.633 173.083 597.564 173.177 597.515 173.256C597.491 173.295 597.467 173.338 597.45 173.38C597.435 173.414 597.408 173.485 597.414 173.569L597.995 173.527ZM612.947 166.611C610.342 168.557 606.527 170.354 603.344 171.601C601.756 172.223 600.333 172.705 599.308 172.998C598.795 173.145 598.389 173.242 598.115 173.286C597.975 173.309 597.887 173.315 597.841 173.313C597.815 173.311 597.828 173.308 597.856 173.321C597.892 173.337 597.985 173.397 597.995 173.527L597.414 173.569C597.426 173.732 597.542 173.818 597.618 173.852C597.687 173.883 597.76 173.891 597.811 173.894C597.92 173.9 598.058 173.885 598.209 173.861C598.516 173.811 598.947 173.707 599.468 173.558C600.515 173.259 601.955 172.77 603.557 172.143C606.755 170.89 610.628 169.07 613.295 167.077L612.947 166.611ZM625.546 178.134C621.799 173.746 617.654 169.723 613.29 166.607L612.952 167.081C617.268 170.163 621.379 174.149 625.104 178.512L625.546 178.134ZM625.228 178.049C622.073 179.171 618.583 181.413 616.721 182.962C616.256 183.35 615.882 183.702 615.638 183.99C615.518 184.132 615.418 184.272 615.358 184.403C615.307 184.514 615.238 184.722 615.366 184.907C615.491 185.09 615.709 185.107 615.843 185.103C615.999 185.097 616.19 185.057 616.411 184.989C616.857 184.854 617.49 184.589 618.335 184.175L618.079 183.652C617.243 184.062 616.643 184.31 616.242 184.432C616.039 184.494 615.904 184.518 615.822 184.521C615.718 184.525 615.788 184.494 615.846 184.578C615.906 184.666 615.85 184.726 615.887 184.646C615.915 184.586 615.976 184.493 616.083 184.366C616.294 184.116 616.638 183.788 617.094 183.41C618.915 181.893 622.347 179.691 625.423 178.598L625.228 178.049ZM618.335 184.175C620.377 183.173 622.115 182.376 623.568 181.709L623.325 181.18C621.872 181.847 620.129 182.647 618.079 183.652L618.335 184.175ZM623.568 181.709C624.862 181.116 625.936 180.623 626.794 180.183L626.529 179.665C625.685 180.098 624.624 180.585 623.325 181.18L623.568 181.709ZM635.749 192.418C633.237 188.209 630.237 183.845 626.887 179.74L626.436 180.108C629.767 184.189 632.751 188.529 635.249 192.716L635.749 192.418ZM630.815 197.834C630.819 196.615 631.841 194.286 635.603 192.839L635.394 192.295C631.47 193.805 630.238 196.313 630.233 197.832L630.815 197.834ZM637.087 195.237C634.848 196.076 632.447 196.901 630.434 197.557L630.614 198.11C632.634 197.453 635.042 196.625 637.291 195.782L637.087 195.237Z" fill="black"/>
<path d="M637.723 206.175C623.95 196.197 591.803 172.413 582.244 169.226" stroke="black" stroke-width="0.582095"/>
<path fill-rule="evenodd" clip-rule="evenodd" d="M578.231 95.741C581.966 88.8989 585.848 83.3126 589.088 79.9575C591.981 82.9378 596.013 89.3908 599.827 97.6786C593.493 100.937 589.173 103.865 596.525 102.623C598.421 102.303 600.057 101.881 601.466 101.389C603.915 107.169 606.185 113.64 607.888 120.337C599.502 123.989 590.065 128.642 598.666 127.134C603.342 126.314 606.518 124.871 608.611 123.345C610.214 130.442 611.129 137.711 610.905 144.61C604.33 146.424 593.733 152.516 593.675 153.137C593.621 153.711 603.507 153.829 610.202 151.899C605.231 181.797 576.428 186.912 566.009 157.612C564.963 154.672 564.336 151.487 564.061 148.139C571.501 150.858 581.142 153.061 581.581 152.734C582.119 152.334 571.757 143.793 563.983 140.841C564.345 134.112 565.816 126.994 567.95 120.043C574.537 125.185 586.812 128.779 578.735 123.842C576.278 122.341 574.246 121.026 572.55 119.928C571.038 118.95 569.793 118.144 568.751 117.532C570.85 111.196 573.462 105.055 576.24 99.5385C580.421 102.633 583.764 102.195 585.227 101.271C583.16 99.5667 580.65 97.5634 578.231 95.741Z" fill="url(#paint2_linear)"/>
<path d="M589.088 79.9575L589.297 79.7548L589.087 79.5391L588.879 79.7554L589.088 79.9575ZM578.231 95.741L577.976 95.6015L577.856 95.8221L578.056 95.9734L578.231 95.741ZM599.827 97.6786L599.96 97.9374L600.208 97.8099L600.091 97.5569L599.827 97.6786ZM596.525 102.623L596.573 102.91L596.573 102.91L596.525 102.623ZM601.466 101.389L601.734 101.275L601.627 101.024L601.37 101.114L601.466 101.389ZM607.888 120.337L608.004 120.604L608.231 120.505L608.17 120.266L607.888 120.337ZM598.666 127.134L598.717 127.421L598.717 127.421L598.666 127.134ZM608.611 123.345L608.894 123.281L608.797 122.849L608.439 123.11L608.611 123.345ZM610.905 144.61L610.983 144.89L611.189 144.833L611.196 144.619L610.905 144.61ZM593.675 153.137L593.965 153.164L593.965 153.164L593.675 153.137ZM610.202 151.899L610.489 151.947L610.565 151.492L610.121 151.62L610.202 151.899ZM566.009 157.612L566.283 157.515L566.283 157.515L566.009 157.612ZM564.061 148.139L564.161 147.865L563.734 147.709L563.771 148.163L564.061 148.139ZM581.581 152.734L581.755 152.968L581.755 152.968L581.581 152.734ZM563.983 140.841L563.692 140.826L563.681 141.038L563.88 141.113L563.983 140.841ZM567.95 120.043L568.129 119.814L567.796 119.553L567.672 119.958L567.95 120.043ZM578.735 123.842L578.583 124.091L578.583 124.091L578.735 123.842ZM572.55 119.928L572.392 120.173L572.392 120.173L572.55 119.928ZM568.751 117.532L568.475 117.441L568.401 117.664L568.604 117.783L568.751 117.532ZM576.24 99.5385L576.413 99.3046L576.136 99.099L575.98 99.4076L576.24 99.5385ZM585.227 101.271L585.383 101.517L585.723 101.303L585.412 101.047L585.227 101.271ZM588.879 79.7554C585.613 83.1367 581.717 88.7481 577.976 95.6015L578.487 95.8804C582.215 89.0498 586.083 83.4885 589.297 80.1597L588.879 79.7554ZM600.091 97.5569C596.273 89.2607 592.225 82.7713 589.297 79.7548L588.879 80.1603C591.737 83.1043 595.752 89.5208 599.563 97.8003L600.091 97.5569ZM596.476 102.337C595.563 102.491 594.838 102.579 594.28 102.61C593.714 102.642 593.345 102.614 593.128 102.553C593.021 102.522 592.976 102.49 592.962 102.476C592.957 102.471 592.96 102.476 592.96 102.473C592.96 102.458 592.968 102.413 593.018 102.331C593.066 102.251 593.143 102.155 593.253 102.041C593.7 101.579 594.575 100.963 595.756 100.25C596.929 99.5411 598.38 98.7505 599.96 97.9374L599.694 97.4198C598.107 98.236 596.643 99.0334 595.455 99.7514C594.274 100.465 593.34 101.114 592.835 101.636C592.707 101.768 592.599 101.9 592.52 102.029C592.443 102.157 592.383 102.301 592.378 102.454C592.373 102.62 592.433 102.771 592.553 102.89C592.663 102.999 592.811 103.068 592.969 103.113C593.282 103.202 593.732 103.224 594.312 103.192C594.9 103.158 595.648 103.067 596.573 102.91L596.476 102.337ZM601.37 101.114C599.978 101.6 598.358 102.019 596.476 102.337L596.573 102.91C598.484 102.588 600.136 102.162 601.562 101.663L601.37 101.114ZM608.17 120.266C606.463 113.553 604.188 107.067 601.734 101.275L601.198 101.502C603.642 107.27 605.907 113.728 607.606 120.409L608.17 120.266ZM598.616 126.847C597.546 127.035 596.77 127.124 596.244 127.134C595.98 127.138 595.792 127.123 595.667 127.095C595.531 127.065 595.523 127.033 595.539 127.056C595.573 127.106 595.541 127.141 595.566 127.09C595.593 127.034 595.661 126.944 595.792 126.821C596.05 126.579 596.48 126.274 597.059 125.918C599.371 124.499 603.809 122.431 608.004 120.604L607.772 120.07C603.581 121.895 599.107 123.979 596.755 125.422C596.168 125.783 595.697 126.113 595.394 126.397C595.245 126.537 595.117 126.683 595.044 126.833C594.968 126.987 594.928 127.196 595.06 127.387C595.173 127.551 595.366 127.625 595.542 127.664C595.731 127.705 595.97 127.721 596.254 127.716C596.826 127.705 597.637 127.61 598.717 127.421L598.616 126.847ZM608.439 123.11C606.389 124.605 603.257 126.033 598.616 126.847L598.717 127.421C603.426 126.595 606.647 125.137 608.782 123.58L608.439 123.11ZM611.196 144.619C611.421 137.689 610.502 130.395 608.894 123.281L608.327 123.409C609.926 130.489 610.837 137.732 610.615 144.6L611.196 144.619ZM593.965 153.164C593.959 153.227 593.93 153.256 593.945 153.236C593.953 153.225 593.972 153.203 594.007 153.169C594.077 153.102 594.186 153.012 594.336 152.9C594.635 152.678 595.072 152.386 595.621 152.045C596.718 151.363 598.247 150.49 599.982 149.578C603.456 147.754 607.726 145.789 610.983 144.89L610.828 144.329C607.51 145.245 603.194 147.233 599.711 149.063C597.967 149.979 596.425 150.859 595.313 151.551C594.758 151.896 594.306 152.197 593.988 152.433C593.83 152.551 593.699 152.658 593.604 152.749C593.557 152.795 593.512 152.842 593.476 152.891C593.448 152.93 593.395 153.008 593.385 153.11L593.965 153.164ZM610.121 151.62C606.805 152.576 602.686 153.027 599.395 153.166C597.751 153.236 596.322 153.228 595.31 153.167C594.803 153.136 594.41 153.093 594.151 153.042C594.018 153.016 593.938 152.992 593.897 152.974C593.876 152.964 593.884 152.964 593.902 152.982C593.923 153.002 593.974 153.066 593.965 153.164L593.385 153.11C593.372 153.245 593.44 153.343 593.495 153.398C593.547 153.449 593.609 153.482 593.659 153.505C593.761 153.55 593.893 153.585 594.039 153.614C594.336 153.672 594.759 153.717 595.276 153.748C596.312 153.81 597.762 153.818 599.42 153.748C602.733 153.608 606.904 153.153 610.283 152.179L610.121 151.62ZM565.735 157.71C570.973 172.44 580.882 178.624 590.191 177.243C599.482 175.865 607.991 166.973 610.489 151.947L609.915 151.852C607.442 166.723 599.064 175.338 590.106 176.667C581.166 177.993 571.464 172.084 566.283 157.515L565.735 157.71ZM563.771 148.163C564.047 151.532 564.679 154.742 565.735 157.71L566.283 157.515C565.247 154.602 564.624 151.443 564.351 148.115L563.771 148.163ZM581.408 152.501C581.451 152.469 581.484 152.468 581.465 152.471C581.454 152.473 581.431 152.475 581.39 152.476C581.31 152.477 581.194 152.47 581.038 152.453C580.729 152.42 580.296 152.352 579.758 152.251C578.684 152.049 577.211 151.721 575.517 151.297C572.128 150.449 567.869 149.221 564.161 147.865L563.961 148.412C567.693 149.776 571.974 151.01 575.375 151.861C577.076 152.287 578.561 152.618 579.651 152.823C580.195 152.925 580.645 152.996 580.976 153.032C581.141 153.049 581.284 153.059 581.397 153.058C581.454 153.057 581.51 153.054 581.562 153.045C581.606 153.037 581.684 153.02 581.755 152.968L581.408 152.501ZM563.88 141.113C567.73 142.575 572.239 145.43 575.728 147.98C577.47 149.253 578.95 150.444 579.959 151.34C580.464 151.789 580.845 152.158 581.081 152.423C581.201 152.558 581.272 152.653 581.304 152.711C581.322 152.742 581.316 152.74 581.312 152.715C581.308 152.683 581.307 152.576 581.408 152.501L581.755 152.968C581.889 152.868 581.901 152.72 581.888 152.632C581.877 152.551 581.842 152.478 581.811 152.424C581.747 152.311 581.643 152.179 581.516 152.036C581.258 151.746 580.857 151.359 580.345 150.905C579.319 149.994 577.824 148.791 576.071 147.51C572.569 144.95 568.01 142.059 564.086 140.569L563.88 141.113ZM567.672 119.958C565.533 126.925 564.056 134.066 563.692 140.826L564.274 140.857C564.634 134.157 566.099 127.064 568.228 120.128L567.672 119.958ZM567.771 120.272C571.097 122.869 575.845 125.067 578.752 125.999C579.48 126.232 580.104 126.39 580.569 126.454C580.8 126.485 581.009 126.496 581.179 126.472C581.327 126.452 581.557 126.39 581.651 126.168C581.744 125.95 581.637 125.737 581.543 125.601C581.437 125.446 581.27 125.275 581.05 125.086C580.608 124.707 579.901 124.214 578.887 123.594L578.583 124.091C579.588 124.705 580.264 125.179 580.671 125.528C580.876 125.704 580.999 125.837 581.063 125.93C581.14 126.042 581.082 126.02 581.116 125.94C581.151 125.857 581.214 125.88 581.1 125.896C581.007 125.908 580.858 125.905 580.648 125.877C580.232 125.82 579.644 125.674 578.93 125.445C576.072 124.529 571.389 122.359 568.129 119.814L567.771 120.272ZM578.887 123.594C576.434 122.095 574.405 120.782 572.708 119.684L572.392 120.173C574.088 121.27 576.123 122.587 578.583 124.091L578.887 123.594ZM572.708 119.684C571.198 118.707 569.947 117.897 568.899 117.281L568.604 117.783C569.639 118.391 570.878 119.193 572.392 120.173L572.708 119.684ZM575.98 99.4076C573.196 104.936 570.579 111.09 568.475 117.441L569.027 117.624C571.122 111.302 573.728 105.175 576.5 99.6694L575.98 99.4076ZM585.072 101.025C583.736 101.869 580.525 102.347 576.413 99.3046L576.067 99.7724C580.318 102.918 583.792 102.522 585.383 101.517L585.072 101.025ZM578.056 95.9734C580.471 97.7928 582.978 99.7933 585.042 101.496L585.412 101.047C583.343 99.3401 580.829 97.3341 578.407 95.5085L578.056 95.9734Z" fill="black"/>
<path d="M589.243 87.9385C587.941 109.391 584.372 159.797 587.455 172.152" stroke="black" stroke-width="0.582095"/>
<path d="M580.604 163.985C575.73 152.109 526.621 163.285 532.067 183.904C542.589 202.414 584.073 172.438 580.604 163.985Z" fill="#FCAECD" stroke="black" stroke-width="0.582095"/>
<path d="M622.961 193.416C630.157 183.871 595.935 148.382 581.898 162.457C574.419 172.376 613.788 205.582 622.961 193.416Z" fill="#FCAECD" stroke="black" stroke-width="0.582095"/>
<path d="M581.774 160.085C585.865 169.258 632.693 158.111 629.689 138.714C619.559 127.034 576.56 148.395 581.774 160.085Z" fill="#FCAECD" stroke="black" stroke-width="0.582095"/>
<path d="M579.115 160.131C590.208 162.65 608.384 115.838 590.731 108.968C579.203 106.351 564.977 156.921 579.115 160.131Z" fill="#FCAECD" stroke="black" stroke-width="0.582095"/>
<path d="M581.38 162.252C588.458 151.543 551.596 117.224 537.61 133.324C528.224 152.436 576.342 169.875 581.38 162.252Z" fill="#FCAECD" stroke="black" stroke-width="0.582095"/>
<path d="M581.209 161.921C569.073 160.985 557.115 213.646 576.872 218.18C597.061 216.816 589.847 162.586 581.209 161.921Z" fill="#FCAECD" stroke="black" stroke-width="0.582095"/>
<circle cx="581.778" cy="163.123" r="10.8932" transform="rotate(119.997 581.778 163.123)" fill="#FFDFAB" stroke="black" stroke-width="0.582095"/>
<path d="M331.414 284.923L257.238 284.94C255.241 284.941 253.57 283.428 253.371 281.442L245.688 204.624C245.459 202.334 247.259 200.348 249.559 200.352L335.776 200.475C338.007 200.478 339.776 202.354 339.65 204.581L335.292 281.258C335.175 283.315 333.474 284.922 331.414 284.923Z" fill="#E4DCDC" stroke="black" stroke-width="0.584873"/>
<rect width="104.296" height="4.17767" rx="2.08883" transform="matrix(-1 0 0 1 487.416 207.186)" fill="#C4C4C4"/>
<rect width="103.517" height="4.17767" rx="2.08883" transform="matrix(-1 0 0 1 482.204 230.44)" fill="#C4C4C4"/>
<rect width="102.713" height="4.17767" rx="2.08883" transform="matrix(-1 0 0 1 477.166 253.695)" fill="#C4C4C4"/>
<rect width="102.645" height="4.17767" rx="2.08883" transform="matrix(-1 0 0 1 472.018 276.949)" fill="#C4C4C4"/>
<defs>
<filter id="filter0_i" x="319.604" y="424.711" width="84.9893" height="58.9374" filterUnits="userSpaceOnUse" color-interpolation-filters="sRGB">
<feFlood flood-opacity="0" result="BackgroundImageFix"/>
<feBlend mode="normal" in="SourceGraphic" in2="BackgroundImageFix" result="shape"/>
<feColorMatrix in="SourceAlpha" type="matrix" values="0 0 0 0 0 0 0 0 0 0 0 0 0 0 0 0 0 0 127 0" result="hardAlpha"/>
<feOffset dx="0.582095" dy="0.582095"/>
<feGaussianBlur stdDeviation="2.32838"/>
<feComposite in2="hardAlpha" operator="arithmetic" k2="-1" k3="1"/>
<feColorMatrix type="matrix" values="0 0 0 0 0 0 0 0 0 0 0 0 0 0 0 0 0 0 0.25 0"/>
<feBlend mode="normal" in2="shape" result="effect1_innerShadow"/>
</filter>
<filter id="filter1_i" x="249.612" y="328.197" width="226.784" height="86.0917" filterUnits="userSpaceOnUse" color-interpolation-filters="sRGB">
<feFlood flood-opacity="0" result="BackgroundImageFix"/>
<feBlend mode="normal" in="SourceGraphic" in2="BackgroundImageFix" result="shape"/>
<feColorMatrix in="SourceAlpha" type="matrix" values="0 0 0 0 0 0 0 0 0 0 0 0 0 0 0 0 0 0 127 0" result="hardAlpha"/>
<feOffset dx="1.16419" dy="1.16419"/>
<feGaussianBlur stdDeviation="2.91047"/>
<feComposite in2="hardAlpha" operator="arithmetic" k2="-1" k3="1"/>
<feColorMatrix type="matrix" values="0 0 0 0 0 0 0 0 0 0 0 0 0 0 0 0 0 0 0.25 0"/>
<feBlend mode="normal" in2="shape" result="effect1_innerShadow"/>
</filter>
<filter id="filter2_d" x="23.1086" y="260.212" width="146.879" height="161.129" filterUnits="userSpaceOnUse" color-interpolation-filters="sRGB">
<feFlood flood-opacity="0" result="BackgroundImageFix"/>
<feColorMatrix in="SourceAlpha" type="matrix" values="0 0 0 0 0 0 0 0 0 0 0 0 0 0 0 0 0 0 127 0" result="hardAlpha"/>
<feOffset/>
<feGaussianBlur stdDeviation="0.49793"/>
<feComposite in2="hardAlpha" operator="out"/>
<feColorMatrix type="matrix" values="0 0 0 0 0 0 0 0 0 0 0 0 0 0 0 0 0 0 0.25 0"/>
<feBlend mode="normal" in2="BackgroundImageFix" result="effect1_dropShadow"/>
<feBlend mode="normal" in="SourceGraphic" in2="effect1_dropShadow" result="shape"/>
</filter>
<linearGradient id="paint0_linear" x1="589.13" y1="167.491" x2="463.784" y2="128.24" gradientUnits="userSpaceOnUse">
<stop stop-color="#3263CE"/>
<stop offset="1" stop-color="white"/>
</linearGradient>
<linearGradient id="paint1_linear" x1="575.965" y1="164.89" x2="684.299" y2="233.2" gradientUnits="userSpaceOnUse">
<stop stop-color="#3263CE"/>
<stop offset="1" stop-color="white"/>
</linearGradient>
<linearGradient id="paint2_linear" x1="587.091" y1="181.786" x2="586.487" y2="19.9457" gradientUnits="userSpaceOnUse">
<stop stop-color="#3263CE"/>
<stop offset="1" stop-color="white"/>
</linearGradient>
</defs>
</svg>
