<svg width="494" height="461" viewBox="0 0 494 461" fill="none" xmlns="http://www.w3.org/2000/svg">
<g filter="url(#filter0_i)">
<path d="M133.407 358.951C133.634 359.198 133.741 359.556 133.522 359.809C131.052 362.68 105.712 365.598 78.1004 365.598C49.0319 365.598 25.614 361.589 29.4793 358.513C34.3175 354.663 41.7945 352.737 81.8193 352.737C109.944 352.737 129.76 354.99 133.407 358.951Z" fill="#C4C4C4"/>
</g>
<path d="M29.6643 358.746L29.6643 358.746C32.0251 356.867 35.0444 355.435 42.4923 354.476C49.9486 353.516 61.8069 353.034 81.8193 353.034C95.8754 353.034 107.848 353.597 116.757 354.654C121.213 355.182 124.894 355.833 127.684 356.596C129.08 356.977 130.246 357.385 131.171 357.816C132.1 358.249 132.77 358.698 133.189 359.153C133.272 359.243 133.324 359.345 133.339 359.431C133.354 359.51 133.338 359.568 133.297 359.615C133.176 359.756 132.967 359.915 132.654 360.087C132.344 360.256 131.946 360.429 131.464 360.603C130.498 360.951 129.212 361.297 127.641 361.634C124.501 362.308 120.25 362.941 115.208 363.484C105.124 364.572 91.8971 365.301 78.1004 365.301C63.5778 365.301 50.4717 364.299 41.4849 362.915C36.9868 362.223 33.5395 361.437 31.4644 360.64C30.4133 360.237 29.7703 359.851 29.4973 359.514C29.369 359.355 29.3468 359.238 29.3619 359.149C29.3785 359.051 29.4525 358.914 29.6643 358.746Z" stroke="black" stroke-width="0.594224" stroke-linejoin="round"/>
<path d="M152.381 281.046C152.381 281.046 152.382 281.046 152.382 281.045C152.915 280.613 153.428 280.207 153.921 279.829C153.985 279.779 153.997 279.686 153.947 279.619L153.919 279.831C153.405 280.211 152.893 280.616 152.383 281.045L152.286 280.928M152.381 281.046L152.286 280.928M152.381 281.046C151.53 281.737 150.631 282.497 149.688 283.324M152.381 281.046L152.382 281.045L149.688 283.324M152.286 280.928C151.414 281.661 150.548 282.461 149.688 283.324M152.286 280.928L152.191 280.811L149.688 283.324M152.286 280.928C151.433 281.621 150.53 282.384 149.585 283.214C150.447 282.349 151.315 281.546 152.189 280.812L152.286 280.928Z" fill="#3263CE" stroke="black" stroke-width="0.3" stroke-linejoin="round"/>
<path d="M160.183 301.122C145.987 309.197 117.865 330.519 86.8414 370.148C86.4986 370.586 86.7424 371.254 87.3006 371.355L98.261 373.346C98.6373 373.414 98.9989 373.2 99.1027 372.826C102.14 361.884 118.403 333.678 160.814 302.151C161.145 301.904 161.223 301.541 161.064 301.275C160.986 301.145 160.857 301.051 160.698 301.019C160.539 300.988 160.362 301.021 160.183 301.122Z" fill="#8EC2FE" stroke="black" stroke-width="0.3" stroke-linejoin="round"/>
<path d="M124.553 291.159C124.547 291.08 124.481 291.019 124.402 291.019C124.323 291.019 124.259 291.08 124.255 291.159C123.782 300.58 122.302 315.783 119.398 331.005C116.492 346.232 112.166 361.456 106.009 370.934C105.715 371.387 105.988 371.995 106.519 372.091L113.745 373.403C114.11 373.47 114.468 373.268 114.573 372.903C119.012 357.502 127.01 320.411 124.553 291.159Z" fill="#8EC2FE" stroke="black" stroke-width="0.3" stroke-linejoin="round"/>
<path d="M145.51 302.468C145.539 302.393 145.502 302.308 145.428 302.275C145.354 302.243 145.268 302.275 145.235 302.348C126.533 342.537 102.432 365.578 91.5138 372.994C90.9554 373.374 91.155 374.259 91.8232 374.38L101.674 376.169C101.741 376.181 101.809 376.185 101.88 376.176C103.574 375.981 105.38 375.042 107.256 373.524C109.133 372.005 111.093 369.896 113.095 367.339C117.099 362.226 121.285 355.307 125.336 347.694C133.438 332.466 141.009 314.438 145.51 302.468Z" fill="#8EC2FE" stroke="black" stroke-width="0.3" stroke-linejoin="round"/>
<path d="M151.459 285.399C151.501 285.333 151.485 285.244 151.421 285.196C151.357 285.148 151.268 285.158 151.218 285.219C143.369 294.613 131.301 310.617 120.51 328.204C109.722 345.787 100.198 364.969 97.453 380.715C97.3816 381.124 97.6616 381.502 98.0628 381.575L110.349 383.805C110.767 383.881 111.164 383.608 111.21 383.175C112.76 368.789 122.803 330.135 151.459 285.399Z" fill="#8EC2FE" stroke="black" stroke-width="0.3" stroke-linejoin="round"/>
<path d="M168.281 299.575C168.324 299.507 168.305 299.416 168.238 299.369C168.171 299.322 168.08 299.337 168.033 299.403C141.756 335.925 102.131 369.241 83.843 382.682C83.2281 383.133 83.629 384.121 84.3855 384.039L99.067 382.445C99.1822 382.433 99.2906 382.395 99.3886 382.33C110.481 374.918 124.272 359.58 136.999 343.431C149.73 327.277 161.409 310.293 168.281 299.575Z" fill="#8EC2FE" stroke="black" stroke-width="0.3" stroke-linejoin="round"/>
<path d="M99.1478 293.918C99.1036 293.85 99.015 293.829 98.9466 293.869C98.8782 293.909 98.8539 293.997 98.8915 294.068C102.792 301.476 108.265 314.668 112.046 330.231C115.827 345.794 117.912 363.717 115.047 380.59C114.977 380.997 115.251 381.391 115.659 381.465L124.893 383.142C125.306 383.217 125.703 382.949 125.746 382.517C127.173 368.177 123.813 331.444 99.1478 293.918Z" fill="#8EC2FE" stroke="black" stroke-width="0.3" stroke-linejoin="round"/>
<path d="M120.156 265.311C120.159 265.229 120.096 265.159 120.015 265.153C119.933 265.148 119.864 265.209 119.858 265.29C118.954 278.161 116.515 299.551 112.13 322.046C107.744 344.543 101.413 368.134 92.7304 385.414C92.5043 385.864 92.7852 386.4 93.2778 386.49L102.556 388.175C102.827 388.224 103.105 388.135 103.266 387.892C104.43 386.14 105.893 382.727 107.476 377.324C109.061 371.917 110.768 364.506 112.417 354.749C115.716 335.236 118.781 306.335 120.156 265.311Z" fill="#8EC2FE" stroke="black" stroke-width="0.3" stroke-linejoin="round"/>
<path d="M61.1581 267.976C61.1726 267.896 61.1214 267.82 61.0426 267.804C60.9637 267.789 60.8856 267.839 60.8661 267.918C56.4899 285.685 50.4869 330.56 61.3057 368.509C61.4114 368.88 61.7827 369.1 62.1591 369.019L69.7535 367.384C70.2478 367.278 70.5167 366.727 70.2702 366.28C63.2991 353.64 52.2642 317.501 61.1581 267.976Z" fill="#8EC2FE" stroke="black" stroke-width="0.3" stroke-linejoin="round"/>
<path d="M43.3831 250.627C43.3651 250.546 43.2859 250.497 43.2056 250.516C43.1254 250.535 43.0742 250.615 43.091 250.696C48.6761 277.488 62.3306 338.047 72.4996 367.102C72.6325 367.481 73.0348 367.66 73.4099 367.538L81.1411 365.021C81.6323 364.861 81.8345 364.269 81.5365 363.851C78.2749 359.277 72.6469 348.455 65.8777 330.028C59.1097 311.604 51.2036 285.586 43.3831 250.627Z" fill="#8EC2FE" stroke="black" stroke-width="0.3" stroke-linejoin="round"/>
<path d="M46.3938 257.161C46.3694 257.082 46.286 257.039 46.2072 257.065C46.1284 257.09 46.084 257.175 46.108 257.254C60.4336 304.466 66.9157 352.483 68.4353 371.277C68.4718 371.728 68.8884 372.007 69.3165 371.915L80.1708 369.578C80.603 369.485 80.8665 369.037 80.7366 368.615L46.3939 257.161L46.3938 257.161Z" fill="#8EC2FE" stroke="black" stroke-width="0.3" stroke-linejoin="round"/>
<path d="M60.0985 291.808C60.0421 291.752 59.9516 291.752 59.8927 291.807C59.8338 291.862 59.8271 291.953 59.8776 292.014C65.5769 298.922 74.5706 310.549 83.107 323.07C91.6454 335.593 99.7185 348.998 103.585 359.465C103.712 359.81 104.067 359.996 104.423 359.919L108.808 358.975C109.238 358.883 109.514 358.443 109.366 358.016C106.132 348.65 92.2031 323.395 60.0985 291.808Z" fill="#8EC2FE" stroke="black" stroke-width="0.3" stroke-linejoin="round"/>
<path d="M92.7412 281.723C92.7667 281.647 92.7283 281.564 92.6539 281.537C92.5795 281.509 92.4954 281.545 92.463 281.619C86.5874 295.068 76.8411 331.043 84.5685 367.883C84.6518 368.28 85.0381 368.531 85.4351 368.446L91.3107 367.181C91.7379 367.089 92.0116 366.66 91.8846 366.233C87.4769 351.425 81.7336 314.818 92.7412 281.723Z" fill="#3263CE" stroke="black" stroke-width="0.3" stroke-linejoin="round"/>
<path d="M100.063 291.489C100.079 291.41 100.031 291.333 99.954 291.314C99.8768 291.295 99.7973 291.341 99.7737 291.418C94.6487 308.145 84.4489 347.47 84.2802 372.076C84.2769 372.551 84.7072 372.882 85.1612 372.784L92.9033 371.118C93.0993 371.075 93.2601 370.941 93.3834 370.778C93.5077 370.613 93.6043 370.407 93.6702 370.193C93.7363 369.978 93.7735 369.749 93.7745 369.537C93.7755 369.326 93.7411 369.119 93.6518 368.957C92.9289 367.648 92.2826 365.408 91.8942 361.959C91.5062 358.512 91.3769 353.871 91.6798 347.766C92.2856 335.557 94.6197 317.507 100.063 291.489Z" fill="#8EC2FE" stroke="black" stroke-width="0.3" stroke-linejoin="round"/>
<path d="M53.5868 244.455C53.5713 244.375 53.4951 244.323 53.4152 244.338C53.3352 244.353 53.2807 244.43 53.2923 244.51L53.2936 244.518L72.1156 375.69C72.1911 376.216 72.775 376.486 73.2293 376.205L82.6658 370.362C82.9411 370.191 83.086 369.872 83.0096 369.552C73.8173 331.067 55.2228 252.837 53.5868 244.455Z" fill="#3263CE" stroke="black" stroke-width="0.3" stroke-linejoin="round"/>
<path d="M10.7769 314.407C15.6736 322.217 22.1875 333.077 27.8927 343.618C33.6005 354.165 38.4901 364.376 40.1484 370.896C40.2554 371.316 40.6869 371.546 41.0957 371.419L43.8909 370.556C44.3093 370.426 44.5381 369.973 44.3588 369.562C38.3768 355.855 24.4897 327.86 11.7793 313.625C11.4991 313.311 11.1263 313.295 10.8786 313.491C10.6335 313.685 10.5547 314.053 10.7769 314.407Z" fill="#8EC2FE" stroke="black" stroke-width="0.3" stroke-linejoin="round"/>
<path d="M1.35435 295.258C1.30272 295.196 1.21153 295.186 1.14774 295.235C1.08395 295.285 1.07032 295.375 1.11685 295.441C8.19032 305.428 18.83 320.992 28.0893 335.678C32.719 343.021 37.0026 350.143 40.3225 356.237C43.6451 362.336 45.9943 367.392 46.766 370.609C46.8913 371.132 47.4995 371.372 47.9468 371.071L52.6668 367.899C52.9812 367.687 53.0997 367.28 52.9109 366.939C47.3042 356.796 29.6192 329.075 1.35435 295.258Z" fill="#3263CE" stroke="black" stroke-width="0.3" stroke-linejoin="round"/>
<path d="M23.4687 313.185C25.3686 325.384 29.7713 346.549 37.9605 370.92C38.0955 371.321 38.5406 371.533 38.9371 371.378L47.3736 368.081C47.6716 367.964 47.8352 367.69 47.87 367.409C47.9047 367.129 47.815 366.82 47.5802 366.616C45.4879 364.8 42.213 360.288 38.2393 351.766C34.2681 343.25 29.6049 330.743 24.7291 312.954C24.6141 312.534 24.2764 312.339 23.9603 312.393C23.8056 312.419 23.6627 312.506 23.5686 312.647C23.4741 312.788 23.4357 312.973 23.4687 313.185Z" fill="#8EC2FE" stroke="black" stroke-width="0.3" stroke-linejoin="round"/>
<path d="M12.2817 283.528C12.2297 283.467 12.1394 283.458 12.0763 283.507C12.0131 283.556 11.9992 283.645 12.0446 283.711C19.2621 294.134 29.9859 310.874 38.8303 327.393C43.2526 335.653 47.2035 343.854 50.0113 351.181C52.8209 358.513 54.4792 364.953 54.3315 369.695C54.3196 370.076 54.588 370.391 54.959 370.454L60.8491 371.452C61.3866 371.543 61.8552 371.055 61.6856 370.518C56.5826 354.374 40.086 315.868 12.2817 283.528Z" fill="#8EC2FE" stroke="black" stroke-width="0.3" stroke-linejoin="round"/>
<path d="M63.8474 366.921C58.6098 356.831 49.3142 347.157 39.3637 338.893C29.4112 330.628 18.7928 323.765 10.8969 319.3C10.711 319.194 10.522 319.172 10.3531 319.217C10.1863 319.261 10.0498 319.368 9.961 319.505C9.78152 319.78 9.7924 320.183 10.125 320.464C27.2857 334.989 38.0062 346.447 44.449 355.063C47.6703 359.372 49.8208 362.968 51.1722 365.88C52.5246 368.794 53.0731 371.015 53.1003 372.575C53.1063 372.916 53.3234 373.222 53.592 373.399C53.8603 373.577 54.2226 373.653 54.527 373.465L63.5754 367.887C63.9031 367.685 64.0269 367.267 63.8474 366.921Z" fill="#8EC2FE" stroke="black" stroke-width="0.3" stroke-linejoin="round"/>
<path d="M9.90464 272.297C9.85209 272.237 9.762 272.229 9.69939 272.278C9.63678 272.327 9.62344 272.416 9.669 272.482C17.8845 284.249 30.2385 303.495 40.7115 323.141C45.948 332.963 50.7131 342.884 54.2554 352.017C57.7987 361.153 60.1144 369.492 60.4604 376.154C60.4813 376.556 60.8116 376.855 61.2081 376.855H67.4065C67.9078 376.855 68.2861 376.381 68.1158 375.89C60.8028 354.812 39.4008 305.843 9.90464 272.297Z" fill="#3263CE" stroke="black" stroke-width="0.3" stroke-linejoin="round"/>
<path d="M28.6028 272.49C27.3802 284.162 29.6462 317.452 46.8041 381.446C46.9038 381.818 47.2751 382.064 47.6591 381.994L52.2738 381.149C52.4717 381.113 52.6319 380.988 52.7519 380.832C52.8721 380.675 52.9599 380.478 53.0131 380.275C53.0663 380.071 53.0868 379.853 53.0664 379.651C53.0462 379.451 52.9843 379.255 52.8612 379.107C51.5882 377.58 50.0241 374.751 48.2646 370.208C46.5063 365.668 44.5567 359.425 42.5084 351.078C38.4117 334.385 33.9224 309.283 29.7791 272.57C29.7361 272.189 29.4905 271.936 29.2041 271.907C29.062 271.893 28.9181 271.936 28.8056 272.041C28.6937 272.145 28.6228 272.299 28.6028 272.49Z" fill="#3263CE" stroke="black" stroke-width="0.3" stroke-linejoin="round"/>
<path d="M52.1418 305.132C50.8675 315.745 50.1476 339.553 54.2518 378.066C54.2918 378.443 54.6099 378.738 54.9923 378.738H60.87C61.4191 378.738 61.7859 378.175 61.5864 377.67C60.3957 374.661 58.6983 367.835 57.114 356.11C55.5303 344.388 54.0606 327.778 53.3216 305.206C53.3083 304.801 53.0664 304.531 52.7645 304.51C52.4582 304.488 52.1904 304.727 52.1418 305.132Z" fill="#8EC2FE" stroke="black" stroke-width="0.3" stroke-linejoin="round"/>
<path d="M39.699 294.449C55.4958 323.528 57.6683 350.245 59.7893 376.329C59.9976 378.891 60.2054 381.446 60.4255 383.996C60.4646 384.45 60.8987 384.761 61.3412 384.655L71.3626 382.236C71.7593 382.14 72.0286 381.767 71.9196 381.35C71.6131 380.18 71.1905 378.429 70.6545 376.209C68.9142 369 65.9794 356.842 61.9488 343.53C56.6774 326.119 49.5249 306.708 40.702 293.775C40.5835 293.601 40.4354 293.492 40.2766 293.452C40.1174 293.412 39.9596 293.444 39.8351 293.531C39.5806 293.709 39.497 294.078 39.699 294.449Z" fill="#8EC2FE" stroke="black" stroke-width="0.3" stroke-linejoin="round"/>
<path d="M80.8493 249.657C80.8597 249.576 80.8036 249.502 80.723 249.489C80.6424 249.477 80.5668 249.532 80.5527 249.612L80.5517 249.619L57.9792 378.435C57.8994 378.89 58.2499 379.307 58.7123 379.307H72.2731C72.7926 379.307 73.1566 378.803 73.0234 378.31C72.4979 376.366 72.0308 372.723 71.8007 367.002C71.5707 361.283 71.5777 353.497 71.9967 343.27C72.8345 322.817 75.3197 292.605 80.8493 249.657Z" fill="#8EC2FE" stroke="black" stroke-width="0.3" stroke-linejoin="round"/>
<path d="M75.1716 252.382C75.1511 252.302 75.0704 252.254 74.9906 252.274C74.9108 252.293 74.8616 252.373 74.8803 252.453C77.8222 265.076 81.7412 286.461 83.9769 309.734C86.2128 333.01 86.764 358.162 82.9766 378.324C82.8822 378.827 83.3087 379.264 83.8109 379.196L97.1748 377.396C97.5646 377.344 97.8575 377.012 97.8176 376.607C95.8464 356.586 88.6659 304.666 75.1716 252.382Z" fill="#8EC2FE" stroke="black" stroke-width="0.3" stroke-linejoin="round"/>
<path d="M95.5985 239.342C95.6169 239.264 95.57 239.185 95.4922 239.163C95.4145 239.142 95.3337 239.186 95.3094 239.263C85.6468 269.842 66.0605 341.343 64.6819 383.718C64.6681 384.141 65.0095 384.473 65.425 384.473H79.728C80.2877 384.473 80.6416 383.884 80.4375 383.382C79.4003 380.831 78.4689 376.332 77.998 369.564C77.5273 362.799 77.517 353.776 78.3158 342.185C79.9134 319.003 84.7466 285.551 95.5985 239.342Z" fill="#8EC2FE" stroke="black" stroke-width="0.3" stroke-linejoin="round"/>
<path d="M106.014 249.7C106.048 249.626 106.017 249.539 105.944 249.503C105.871 249.467 105.783 249.496 105.745 249.568C98.1118 264.039 86.538 287.233 76.5222 309.967C71.5143 321.334 66.8953 332.588 63.3529 342.581C59.8115 352.571 57.3427 361.309 56.6411 367.642C56.5985 368.027 56.8613 368.346 57.2239 368.423L67.2132 370.57C67.6346 370.66 68.0525 370.394 68.1079 369.953C70.3082 352.413 80.7935 304.886 106.014 249.7Z" fill="#3263CE" stroke="black" stroke-width="0.3" stroke-linejoin="round"/>
<path d="M102.479 277.418C102.466 277.339 102.395 277.284 102.316 277.292C102.237 277.3 102.178 277.368 102.181 277.448C102.557 287.008 102.449 302.905 100.919 319.696C99.389 336.49 96.4369 354.166 91.1296 367.291C90.9298 367.785 91.2965 368.315 91.825 368.315H101.901C102.217 368.315 102.503 368.128 102.601 367.815C105.892 357.334 110.284 325.34 102.479 277.418Z" fill="#8EC2FE" stroke="black" stroke-width="0.3" stroke-linejoin="round"/>
<path d="M79.4122 289.91C79.4271 289.832 79.5022 289.782 79.5824 289.797C79.6626 289.811 79.7192 289.885 79.7107 289.964C78.6304 300.007 77.9502 315.833 79.3611 331.032C80.0665 338.632 81.2944 346.07 83.2545 352.549C85.2151 359.03 87.9047 364.538 91.525 368.289C91.9555 368.735 91.7364 369.479 91.1235 369.568L81.2201 371.002C80.8661 371.054 80.5114 370.86 80.3889 370.509C76.7478 360.085 71.7003 330.225 79.4122 289.91Z" fill="#8EC2FE" stroke="black" stroke-width="0.3" stroke-linejoin="round"/>
<path d="M114.89 245.546C114.906 245.468 114.858 245.392 114.782 245.371C114.705 245.351 114.626 245.394 114.601 245.469C105.202 273.851 85.3358 339.288 80.6359 375.207C80.577 375.657 80.9317 376.031 81.3746 376.031H91.4124C91.4233 376.202 91.4396 376.347 91.4614 376.467C91.4885 376.616 91.5265 376.741 91.5839 376.829C91.6136 376.874 91.6536 376.918 91.708 376.945C91.7654 376.974 91.8273 376.979 91.8864 376.965C91.9919 376.94 92.0788 376.856 92.1479 376.769C92.3269 376.545 92.306 376.275 92.1788 376.074C92.0772 375.913 91.9047 375.787 91.7 375.746C91.6616 374.352 91.9 371.471 92.56 366.535C93.2404 361.447 94.3673 354.185 96.0946 344.137C99.549 324.042 105.404 292.808 114.89 245.546Z" fill="#8EC2FE" stroke="black" stroke-width="0.3" stroke-linejoin="round"/>
<path d="M86.6229 269.381C88.1412 285.977 89.2634 308.537 88.2677 328.738C87.7699 338.839 86.7427 348.345 84.9724 356.22C83.2007 364.101 80.6898 370.323 77.2414 373.879C76.9547 374.174 76.9754 374.625 77.1305 374.959C77.2852 375.293 77.6147 375.595 78.0313 375.525L95.1206 372.631C95.3903 372.585 95.6159 372.407 95.6994 372.136C99.5133 359.724 102.904 322.87 88.0785 269.118C87.8383 268.247 86.5399 268.474 86.6229 269.381Z" fill="#3263CE" stroke="black" stroke-width="0.3" stroke-linejoin="round"/>
<path d="M121.216 256.212C121.245 256.137 121.21 256.052 121.136 256.02C121.062 255.988 120.976 256.02 120.941 256.093C115.849 266.79 108.677 285.29 103.659 306.113C98.6425 326.934 95.7768 350.093 99.3109 370.1C99.3737 370.456 99.6829 370.71 100.041 370.71H107.983C108.428 370.71 108.785 370.338 108.725 369.884C106.001 349.159 104.788 298.507 121.216 256.212Z" fill="#8EC2FE" stroke="black" stroke-width="0.3" stroke-linejoin="round"/>
<path d="M106.023 262.774C106.004 262.695 105.925 262.646 105.846 262.663C105.767 262.68 105.715 262.757 105.73 262.837C107.823 274.181 110.158 293.279 110.396 313.853C110.633 334.43 108.773 356.468 102.486 373.701C102.308 374.19 102.672 374.701 103.189 374.701H114.258C114.605 374.701 114.912 374.475 114.981 374.121C117.726 359.987 119.656 318.787 106.023 262.774Z" fill="#3263CE" stroke="black" stroke-width="0.3" stroke-linejoin="round"/>
<path d="M91.5304 383.181C91.2971 382.454 91.1749 381.408 91.2027 379.983C91.2317 378.492 91.4244 376.596 91.8179 374.233C92.6049 369.506 94.1936 362.92 96.8738 353.987C102.234 336.122 111.956 308.883 128.349 268.378C128.513 267.972 128.334 267.596 128.052 267.418C127.911 267.33 127.74 267.287 127.568 267.318C127.394 267.35 127.234 267.457 127.117 267.639C118.401 281.282 106.814 301.643 97.6588 322.802C88.5059 343.956 81.7723 365.932 82.7848 382.795C82.8085 383.19 83.1363 383.481 83.5239 383.481H91.3175C91.5865 384.189 91.9854 384.617 92.5012 384.764C93.0335 384.916 93.6432 384.755 94.2787 384.391C94.5807 384.218 94.6647 383.909 94.576 383.646C94.4888 383.388 94.2381 383.181 93.8999 383.181H91.5304Z" fill="#8EC2FE" stroke="black" stroke-width="0.3" stroke-linejoin="round"/>
<path d="M39.2842 438.461C34.7303 414.454 30.8033 375.812 29.3438 359.461C39.5677 368.146 130.148 364.698 133.571 359.412C129.893 388.45 125.837 424.205 122.48 438.461C111.971 447.265 57.8939 449.062 39.2842 438.461Z" fill="url(#paint0_linear)" stroke="black" stroke-width="0.594224" stroke-linejoin="round"/>
<path d="M210.503 172.227C214.042 153.521 274.753 134.52 304.666 127.358L309.499 117.007C408.496 140.921 422.635 164.878 426.184 179.31C429.733 193.743 443.409 307.888 436.498 325.37C429.342 336.754 402.085 343.551 389.391 345.927C387.538 355.593 403.114 381.645 411.094 393.063L318.421 436.31L223.431 393.063L244.629 352.971C225.038 349.811 219.35 346.651 210.503 334.644C201.655 322.636 206.079 195.61 210.503 172.227Z" fill="#8EC2FE" stroke="black"/>
<path d="M353.931 342.855C361.488 327.296 357.08 317.554 353.931 314.627L326.147 312.96L307.767 336.94C305.455 341.652 337.891 343.744 353.931 342.855Z" fill="#F099BC" stroke="black"/>
<path d="M149.687 308.009C176.957 283.466 278.57 361.088 325.968 402.967L436.022 415.141C440.891 427.315 439.43 456.533 421.413 459.941C403.395 463.35 213.966 419.037 198.383 410.758C185.917 404.135 171.114 391.442 165.27 385.923C148.713 370.178 122.417 332.552 149.687 308.009Z" fill="#F099BC" stroke="black"/>
<path d="M180.656 442.598C168.658 415.706 185.655 408.638 195.654 408.466C213.843 408.466 223.709 417.711 264.952 417.711C317.506 404.07 321.522 398.747 342.149 384.773C362.777 370.8 370.429 365.81 387.064 358.823C403.699 351.836 417.339 340.525 421.664 338.196C425.989 335.867 448.28 320.895 472.567 328.215C510.096 344.184 488.204 377.676 472.567 392.425C450.72 410.946 394.05 448.357 342.149 449.838C305.22 449.838 283.809 448.349 264.952 449.838C238.749 451.734 185.207 452.941 180.656 442.598Z" fill="#FCAECD" stroke="black"/>
<path d="M289.947 138.791V109.415H340.432V124.864L346.688 127.378C343.753 139.443 323.861 205.314 313.426 200.749C305.078 197.097 294.295 157.922 289.947 138.791Z" fill="#F099BC" stroke="black"/>
<path d="M316.437 137.635C303.107 139.686 284.905 117.468 277.471 106.103L272.087 61.7525L294.903 33.04L321.308 38.1674L346.688 81.4922V112.512C342.159 120.032 329.768 135.584 316.437 137.635Z" fill="#FCAECD" stroke="black"/>
<path d="M257.898 35.7002C272.581 14.0903 291.259 9.14989 298.762 9.38089C339.627 -16.9384 373.951 24.2269 373.951 39.8869C373.951 55.5468 383.47 64.4443 385.619 74.8914C387.769 85.3386 378.864 105.29 383.47 111.196C388.629 116.904 388.217 130.384 386.784 142.414L340.385 124.787V121.288C342.824 117.906 344.126 115.227 345.02 112.375C345.718 110.149 346.939 98.6343 346.593 91.7081C346.247 84.7819 325.963 82.3736 323.539 66.7896C321.6 54.3224 310.033 48.2042 304.492 46.7036C301.834 46.4861 297.823 49.3391 290.105 57.3279C280.23 67.5482 286.988 71.5266 284.91 93.3442C278.097 117.556 293.927 111.196 290.105 134.745C287.384 151.506 296.684 162.45 293.568 173.186C290.451 183.922 300.494 186.346 296.684 197.428C292.875 208.51 281.793 214.743 275.56 217.167C269.326 219.592 233.656 226.172 231.924 208.163C230.193 190.155 242.314 187.731 238.158 175.264C234.002 155.524 238.158 154.831 242.314 143.75C246.469 132.668 239.543 124.356 242.314 111.196C245.084 98.0365 249.933 94.9197 252.703 80.0283C255.474 65.137 247.855 50.5919 257.898 35.7002Z" fill="#3263CE" stroke="black"/>
<path d="M309.536 266.056C295.208 246.135 254.608 233.284 234.656 234.81L238.346 266.435L316.582 287.329L392.934 248.118L389.163 220.355C329.59 228.827 309.536 254.894 309.536 266.056Z" fill="#DDDDDD" stroke="black"/>
<path d="M229.412 253.58L233.62 243.611L309.38 265.901C322.49 243.934 376.734 231.72 391.597 229.066L392.933 246L326.696 279.169C326.696 279.169 308.335 283.496 303.535 282.353L229.412 253.58Z" fill="#F1F1F1" stroke="black"/>
<path d="M240.292 320.574L227.823 255.021C227.525 253.453 229.08 252.173 230.561 252.766C257.421 263.517 306.312 277.567 310.44 275.711C314.694 273.799 318.561 271.121 321.753 269.037L392.052 235.894C393.356 235.279 394.861 236.203 394.904 237.644L396.727 299.038C396.757 300.033 396.049 300.897 395.071 301.079C361.158 307.401 330.432 326.066 319.158 334.744L241.936 322.174C241.106 322.039 240.449 321.4 240.292 320.574Z" fill="#142FA5" stroke="black"/>
<path d="M289.059 301.548C292.399 298.672 302.141 301.084 285.517 317.343C293.91 318.386 313.855 316.403 326.484 300.12C329.355 296.859 333.138 299.338 330.92 302.861L330.905 302.885C328.696 306.393 327.372 308.495 316.308 319.3C319.439 317.951 328.389 312.228 339.14 300.12C340.24 298.263 345.081 299.499 343.054 302.861C338.774 309.958 328.83 318.043 324.393 321.198C328.785 318.344 340.243 310.383 345.959 302.562C347.159 300.919 351.088 302.562 349.909 305.239C349.465 306.246 347.655 308.19 345.22 310.512L349.242 307.026C351.34 305.962 353.211 308.58 351.088 311.222C346.64 316.762 328.275 338.208 304.696 340.543L279.458 342.617C279.458 342.617 264.867 326.27 268.768 317.343C272.519 311.408 277.739 309.157 289.059 301.548Z" fill="#FCAECD" stroke="black"/>
<path d="M353.982 342.812C361.546 344.681 367.793 345.927 389.21 345.927" stroke="black"/>
<path d="M279.5 342.559C268.519 345.224 259.827 344.681 251.016 343.951" stroke="black"/>
<defs>
<filter id="filter0_i" x="29.0605" y="346.795" width="104.581" height="18.8027" filterUnits="userSpaceOnUse" color-interpolation-filters="sRGB">
<feFlood flood-opacity="0" result="BackgroundImageFix"/>
<feBlend mode="normal" in="SourceGraphic" in2="BackgroundImageFix" result="shape"/>
<feColorMatrix in="SourceAlpha" type="matrix" values="0 0 0 0 0 0 0 0 0 0 0 0 0 0 0 0 0 0 127 0" result="hardAlpha"/>
<feOffset dy="-5.94224"/>
<feGaussianBlur stdDeviation="5.94224"/>
<feComposite in2="hardAlpha" operator="arithmetic" k2="-1" k3="1"/>
<feColorMatrix type="matrix" values="0 0 0 0 0.0784314 0 0 0 0 0.184314 0 0 0 0 0.647059 0 0 0 1 0"/>
<feBlend mode="normal" in2="shape" result="effect1_innerShadow"/>
</filter>
<linearGradient id="paint0_linear" x1="133.571" y1="385.903" x2="24.905" y2="395.745" gradientUnits="userSpaceOnUse">
<stop stop-color="white"/>
<stop offset="0.810905" stop-color="#FCAECD"/>
</linearGradient>
</defs>
</svg>
